<?xml version="1.0" encoding="utf-8"?>
<!-- Generator: Adobe Illustrator 24.1.3, SVG Export Plug-In . SVG Version: 6.00 Build 0)  -->
<svg version="1.1" id="Layer_1" xmlns="http://www.w3.org/2000/svg" xmlns:xlink="http://www.w3.org/1999/xlink" x="0px" y="0px"
	 viewBox="0 0 144 144" style="enable-background:new 0 0 144 144;" xml:space="preserve">
<style type="text/css">
	.st0{fill:#0060B1;}
	.st1{opacity:0.46;}
	.st2{fill:#FF6500;}
	.st3{fill:#FFFFFF;stroke:#0060B1;stroke-width:2;stroke-miterlimit:10;}
	.st4{opacity:0.22;}
</style>
<g>
	<g>
		<g>
			<ellipse transform="matrix(0.6117 -0.7911 0.7911 0.6117 1.0382 115.6314)" class="st0" cx="118.3" cy="56.8" rx="6" ry="9.1"/>
			<polygon class="st0" points="91.4,2.2 96.6,6.2 124.2,55.9 121.2,59.8 117.5,53.8 119,51.8 			"/>
		</g>
	</g>
	<ellipse class="st1" cx="93.8" cy="134.7" rx="44.3" ry="7.5"/>
	<ellipse class="st2" cx="73.9" cy="81.7" rx="55.1" ry="53"/>
	<g>
		<path class="st3" d="M52.7,83.8c-1.1-17.4,32-17.3,45.8-25.3c1.6-0.9,7.1-3.5,8.9-3.9c5-1.1,17.6,13.6,15.8,25.3
			c-1.1,7.8-7.7,12.7-18.2,19.9c-15.3,10.5-27.2,13.1-40.5,12.3C53.9,111.5,53.3,93.6,52.7,83.8z"/>
		<path d="M75.1,90.8h6.6c-0.8,4.5-3.8,8.3-7.5,8.3c-3.6,0-6.6-3.7-6.6-8.3c0-4.5,3-8.3,6.6-8.3c3.1,0,5.9,2.8,6.5,6.6L75.1,90.8z"
			/>
		<path d="M106.6,75.9h6.6c0,4.5-3,8.3-6.6,8.3s-6.6-3.7-6.6-8.3c0-4.5,3-8.3,6.6-8.3c3.1,0,5.9,2.8,6.5,6.6L106.6,75.9z"/>
	</g>
	<path class="st0" d="M37.8,45.2c5.9,2.2,17,5,20.7,12.4c0.4,0.8,2.2,3.8,2.4,4.2C62,64.4,91,52.1,95.1,49.9c0.7-0.4,2.9-1,3.3-2.2
		c1.3-4.4-10.6-15.9-20.3-18.6C59.7,24,30.8,42.6,37.8,45.2z"/>
	<path class="st4" d="M28.3,52.2c2,1.4-1,13.7,1,24.5c0,0.3,0.3,1.3,0.8,3.1c2.2,7.4,6.2,20.7,15.9,29.8c11.1,10.4,28,13.6,41.4,11
		c17.8-3.5,32.8-17.9,35.2-15.7c1.7,1.6-4.4,8.7-10.8,14.9c-14.9,14.6-36.5,15-42.4,14.4c-6.8-0.7-17.3-2-27-9
		c-11.2-8.1-16.7-17.9-19-22c-3.6-6.4-4.6-16.1-4-30c0.2-5.1,2.2-12.2,6-16C27.3,55.2,27.2,51.4,28.3,52.2z"/>
	<g>
		<ellipse class="st3" cx="33.7" cy="93.8" rx="11.6" ry="17.7"/>
		<ellipse cx="33" cy="94.1" rx="6" ry="9.1"/>
		<polygon class="st0" points="6.3,39.4 6.3,46 28.7,98.3 33.7,98.3 31.2,91.6 28.7,91.6 		"/>
	</g>
</g>
</svg>
