<?xml version="1.0" encoding="utf-8"?>
<!-- Generator: Adobe Illustrator 24.1.3, SVG Export Plug-In . SVG Version: 6.00 Build 0)  -->
<svg version="1.1" id="Layer_1" xmlns="http://www.w3.org/2000/svg" xmlns:xlink="http://www.w3.org/1999/xlink" x="0px" y="0px"
	 viewBox="0 0 720 720" style="enable-background:new 0 0 720 720;" xml:space="preserve">
<style type="text/css">
	.st0{fill:#3B2E8D;}
	.st1{fill:#170050;}
	.st2{opacity:0.46;}
	.st3{fill:#710049;stroke:#55004B;stroke-width:2;stroke-miterlimit:10;}
	.st4{fill:#FFFFFF;stroke:#55004B;stroke-width:2;stroke-miterlimit:10;}
	.st5{opacity:0.22;}
	.st6{fill:#FFFFFF;stroke:#55004B;stroke-width:3;stroke-miterlimit:10;}
	.st7{fill:#55004B;}
	.st8{fill:#FFFFFF;}
	.st9{fill:#710049;}
</style>
<rect class="st0" width="720" height="720"/>
<g>
	<g>
		
			<ellipse transform="matrix(0.6117 -0.7911 0.7911 0.6117 5.2358 576.9018)" class="st1" cx="590.3" cy="283.1" rx="29.7" ry="45.5"/>
		<polygon class="st1" points="455.9,11.1 482.1,31.3 619.7,278.8 604.6,298.4 586,268.4 593.6,258.6 		"/>
	</g>
	<ellipse class="st2" cx="467.9" cy="671.8" rx="221.1" ry="37.2"/>
	<ellipse class="st3" cx="368.8" cy="407.4" rx="274.8" ry="264.5"/>
	<g>
		<path class="st4" d="M263.2,418.1c-5.4-86.6,159.5-86.2,228.1-126c8-4.6,35.6-17.4,44.3-19.3c25.1-5.4,87.6,68,79,126.3
			c-5.7,38.7-38.4,63.2-90.9,99.2c-76.3,52.3-135.6,65.2-202.1,61.1C269.2,556.1,266.2,466.8,263.2,418.1z"/>
		<path d="M375,452.8H408c-4.1,22.7-19.1,41.3-37.2,41.3c-18.1,0-33.1-18.7-33.1-41.3c0-22.7,14.9-41.3,33.1-41.3
			c15.6,0,29.2,13.9,32.4,33L375,452.8z"/>
		<path d="M532,378.4H565c0,22.7-14.9,41.3-33.1,41.3s-33.1-18.7-33.1-41.3s14.9-41.3,33.1-41.3c15.6,0,29.2,13.9,32.4,33L532,378.4
			z"/>
	</g>
	<path class="st1" d="M189,225.5c29.6,11.1,84.8,24.9,103.3,62c2,4,10.9,19,11.7,20.9c5.7,12.7,150.2-48.7,170.4-59.3
		c3.4-1.8,14.5-5.1,16.2-11.2c6.3-22.1-53-79.1-101.4-92.5C298,120,154.2,212.5,189,225.5z"/>
	<path class="st5" d="M140,271c10.2,7.2-8.4,57.8,1.6,111.3c0.2,1.3,1.3,6.6,4,15.6c11.1,37,31,103.4,79.3,148.6
		c55.4,51.9,139.6,67.9,206.2,54.8c88.8-17.5,163.5-89.3,175.3-78.3c8.7,8.1-21.9,43.1-53.7,74.4c-74.2,72.9-180.9,73.2-210.7,70.2
		c-33.9-3.3-82.4-14.7-130.7-49.6c-55.7-40.3-88.6-89.3-96.3-111.6c-12.7-36.6-20-70.4-16.9-139.9c1.2-25.6,3.8-52.3,23.8-70.4
		C130,288.8,134.2,266.9,140,271z"/>
	<g>
		<ellipse class="st6" cx="168.4" cy="467.6" rx="57.8" ry="88.5"/>
		<ellipse class="st7" cx="165" cy="469.3" rx="29.7" ry="45.5"/>
		<polygon class="st1" points="32,196.6 32,229.7 143.6,490 168.4,490 156,456.9 143.6,456.9 		"/>
	</g>
</g>
<g>
	<g>
		
			<ellipse transform="matrix(0.6117 -0.7911 0.7911 0.6117 776.7018 778.2424)" class="st1" cx="1181.1" cy="-402.1" rx="7.2" ry="11"/>
		<polygon class="st1" points="1148.6,-467.9 1154.9,-463 1188.2,-403.1 1184.6,-398.4 1180.1,-405.6 1181.9,-408 		"/>
	</g>
	<ellipse class="st2" cx="1151.5" cy="-308" rx="53.5" ry="9"/>
	<ellipse class="st3" cx="1127.5" cy="-372" rx="66.5" ry="64"/>
	<g>
		<path class="st4" d="M1101.9-369.4c-1.3-21,38.6-20.9,55.2-30.5c1.9-1.1,8.6-4.2,10.7-4.7c6.1-1.3,21.2,16.5,19.1,30.6
			c-1.4,9.4-9.3,15.3-22,24c-18.5,12.7-32.8,15.8-48.9,14.8C1103.4-336,1102.7-357.6,1101.9-369.4z"/>
		<path d="M1129-361h8c-1,5.5-4.6,10-9,10s-8-4.5-8-10s3.6-10,8-10c3.8,0,7.1,3.4,7.8,8L1129-361z"/>
		<path d="M1167-379h8c0,5.5-3.6,10-8,10s-8-4.5-8-10s3.6-10,8-10c3.8,0,7.1,3.4,7.8,8L1167-379z"/>
	</g>
	<path class="st1" d="M1084-416c7.2,2.7,20.5,6,25,15c0.5,1,2.6,4.6,2.8,5c1.4,3.1,36.4-11.8,41.2-14.3c0.8-0.4,3.5-1.2,3.9-2.7
		c1.5-5.3-12.8-19.1-24.5-22.4C1110.4-441.5,1075.6-419.2,1084-416z"/>
	<path class="st5" d="M1072.1-405c2.5,1.7-2,14,0.4,26.9c0.1,0.3,0.3,1.6,1,3.8c2.7,8.9,7.5,25,19.2,36
		c13.4,12.5,33.8,16.4,49.9,13.3c21.5-4.2,39.6-21.6,42.4-18.9c2.1,2-5.3,10.4-13,18c-18,17.6-43.8,17.7-51,17
		c-8.2-0.8-19.9-3.6-31.6-12c-13.5-9.7-21.4-21.6-23.3-27c-3.1-8.9-4.8-17-4.1-33.9c0.3-6.2,0.9-12.7,5.8-17
		C1069.7-400.7,1070.7-406,1072.1-405z"/>
	<g>
		<ellipse class="st4" cx="1079" cy="-357.4" rx="14" ry="21.4"/>
		<ellipse class="st7" cx="1078.2" cy="-357" rx="7.2" ry="11"/>
		<polygon class="st1" points="1046,-423 1046,-415 1073,-352 1079,-352 1076,-360 1073,-360 		"/>
	</g>
</g>
<g>
	<path class="st8" d="M1217.5-363.9c-1.3-0.3-2.5-0.7-3.7-1.2c-1.1-0.5-2.2-1.2-3.1-1.9l2.5-4.4c1.1,0.9,2.4,1.6,3.8,2.1
		c1.4,0.5,2.9,0.7,4.4,0.7c1.8,0,3.1-0.3,4.1-0.9c1-0.6,1.5-1.4,1.5-2.5v0c0-0.8-0.2-1.4-0.6-1.8c-0.4-0.4-1-0.8-1.7-1
		c-0.7-0.2-1.6-0.4-2.7-0.6c0,0-0.1,0-0.1,0c0,0-0.1,0-0.1,0l-0.4-0.1c-1.9-0.3-3.5-0.7-4.8-1.1c-1.3-0.5-2.3-1.2-3.2-2.4
		s-1.3-2.7-1.3-4.8v0c0-1.9,0.4-3.4,1.2-4.7c0.8-1.3,2-2.3,3.6-3c1.6-0.7,3.5-1,5.7-1c1,0,2.1,0.1,3.1,0.4s2.1,0.6,3.1,1
		c1,0.4,2,1,2.9,1.6l-2.3,4.6c-1.1-0.8-2.3-1.4-3.5-1.8c-1.2-0.4-2.4-0.6-3.5-0.6c-1.7,0-2.9,0.3-3.8,0.8c-0.9,0.5-1.4,1.3-1.4,2.3
		v0c0,0.8,0.2,1.5,0.7,2c0.5,0.5,1.1,0.8,1.8,1.1c0.7,0.2,1.7,0.5,2.9,0.7c0.1,0,0.1,0,0.2,0c0.1,0,0.1,0,0.2,0c0.1,0,0.2,0,0.2,0
		c0.1,0,0.1,0,0.2,0c1.8,0.4,3.3,0.8,4.5,1.3s2.2,1.3,3,2.4c0.8,1.1,1.2,2.7,1.2,4.6v0c0,1.8-0.4,3.4-1.3,4.7
		c-0.9,1.3-2.1,2.3-3.7,3c-1.6,0.7-3.6,1-5.9,1C1220.1-363.5,1218.8-363.6,1217.5-363.9z"/>
	<path class="st8" d="M1242.3-371.8c0,1,0.3,1.7,0.8,2.3s1.3,0.8,2.4,0.8c1,0,1.8-0.3,2.3-0.8c0.5-0.6,0.8-1.4,0.8-2.4l0.3,4.5
		c-0.4,1.1-1,2.1-1.9,2.8c-0.9,0.8-2,1.1-3.2,1.1c-2.2,0-3.9-0.7-5.1-2.1c-1.2-1.4-1.8-3.4-1.8-6v-12.6h5.4V-371.8z M1248.6-384.2
		h5.4v20.4h-5.4V-384.2z"/>
	<path class="st8" d="M1259.3-384.2h5.4v28.7h-5.4V-384.2z M1266.4-364.4c-0.9-0.6-1.5-1.5-1.9-2.6l0.3-4.7c0,0.7,0.1,1.2,0.4,1.7
		c0.2,0.5,0.6,0.8,1,1.1c0.5,0.2,1,0.4,1.6,0.4c1,0,1.8-0.3,2.4-1s0.8-1.6,0.8-2.8v-3.2c0-1.2-0.3-2.2-0.8-2.9s-1.3-1-2.4-1
		c-0.6,0-1.2,0.1-1.6,0.4c-0.5,0.3-0.8,0.6-1,1.1c-0.2,0.5-0.4,1.1-0.4,1.8l-0.4-4.5c0.6-1.2,1.3-2.1,2.2-2.8s1.9-1,3-1
		c1.4,0,2.7,0.3,3.7,1c1,0.7,1.8,1.7,2.4,3.1s0.8,2.9,0.8,4.8v3.3c0,1.9-0.3,3.5-0.8,4.8s-1.3,2.3-2.4,3c-1,0.7-2.3,1-3.7,1
		C1268.3-363.5,1267.2-363.8,1266.4-364.4z"/>
	<path class="st8" d="M1285-364.5c-1.4-0.7-2.5-1.8-3.2-3.1s-1.1-3-1.1-4.9v-2.3c0-2,0.4-3.7,1.1-5.2c0.7-1.4,1.7-2.5,3.1-3.3
		c1.3-0.7,3-1.1,4.9-1.1c1.8,0,3.3,0.4,4.6,1.3c1.3,0.9,2.2,2.2,2.9,3.9c0.7,1.7,1,3.8,1,6.2v1.3h-14v-3.6h9.1l-0.1-0.5
		c-0.1-1.2-0.5-2.1-1.1-2.7c-0.6-0.6-1.4-1-2.4-1c-1.3,0-2.3,0.4-3,1.2c-0.7,0.8-1.1,1.9-1.1,3.3v2.6c0,1.4,0.4,2.5,1.2,3.2
		c0.8,0.8,1.9,1.1,3.3,1.1c0.7,0,1.4-0.1,2.1-0.4c0.7-0.3,1.4-0.6,1.9-1.1l3.5,3.1c-1.1,1-2.3,1.7-3.6,2.3c-1.3,0.5-2.7,0.8-4,0.8
		C1288-363.5,1286.3-363.8,1285-364.5z"/>
	<path class="st8" d="M1302.8-384.2h5.8v20.4h-5.8V-384.2z M1313.4-379.1c-0.4-0.1-0.8-0.2-1.3-0.2c-1.1,0-1.9,0.4-2.5,1.1
		c-0.6,0.7-0.9,1.7-0.9,2.9l-0.4-5.3c0.6-1.2,1.3-2.2,2.2-2.8c0.9-0.7,1.9-1,3-1c0.9,0,1.6,0.1,2.3,0.4c0.7,0.3,1.3,0.7,1.8,1.2
		l-3.1,4.4C1314.1-378.8,1313.8-379,1313.4-379.1z"/>
	<path class="st8" d="M1327.3-392.4h21v5.2h-21V-392.4z M1335.1-390h5.4v26.3h-5.4V-390z"/>
	<path class="st8" d="M1348.7-384.2h5.8v20.4h-5.8V-384.2z M1359.2-379.1c-0.4-0.1-0.8-0.2-1.3-0.2c-1.1,0-1.9,0.4-2.5,1.1
		c-0.6,0.7-0.9,1.7-0.9,2.9l-0.4-5.3c0.6-1.2,1.3-2.2,2.2-2.8c0.9-0.7,1.9-1,3-1c0.9,0,1.6,0.1,2.3,0.4c0.7,0.3,1.3,0.7,1.8,1.2
		l-3.1,4.4C1359.9-378.8,1359.6-379,1359.2-379.1z"/>
	<path class="st8" d="M1366.5-365c-1.1-1-1.6-2.6-1.6-4.8c0-2,0.6-3.5,1.8-4.5c1.2-1,3-1.5,5.5-1.5h5.1l0.3,4.1h-5.4
		c-0.8,0-1.4,0.2-1.8,0.5c-0.4,0.3-0.6,0.8-0.6,1.5c0,0.7,0.3,1.2,0.8,1.5s1.3,0.5,2.3,0.5c1.4,0,2.5-0.2,3.2-0.5
		c0.7-0.3,1.1-0.8,1.1-1.5l0.4,3c-0.1,0.7-0.4,1.4-1,1.9c-0.6,0.5-1.3,0.9-2.2,1.2s-1.8,0.4-2.8,0.4
		C1369.3-363.5,1367.6-364,1366.5-365z M1377.1-376.7c0-0.9-0.3-1.7-0.9-2.2c-0.6-0.5-1.5-0.8-2.7-0.8c-0.8,0-1.5,0.1-2.3,0.4
		c-0.7,0.3-1.4,0.6-2,1l-3.3-3.3c0.8-0.9,1.9-1.7,3.2-2.2c1.3-0.5,2.8-0.8,4.4-0.8c1.8,0,3.3,0.3,4.6,0.9c1.3,0.6,2.2,1.5,2.9,2.6
		c0.7,1.1,1,2.5,1,4.1v13.1h-4.9V-376.7z"/>
	<path class="st8" d="M1387.4-384.2h5.4v20.4h-5.4V-384.2z M1399.3-375.6c0-1.2-0.3-2.1-0.9-2.8c-0.6-0.6-1.4-1-2.5-1
		c-1,0-1.8,0.3-2.3,0.8c-0.5,0.6-0.8,1.3-0.8,2.4l-0.4-4.5c0.6-1.3,1.4-2.2,2.3-2.9s2-1,3.2-1c1.4,0,2.7,0.3,3.7,1s1.8,1.7,2.4,3.1
		s0.8,2.9,0.8,4.8v11.8h-5.4V-375.6z M1411.2-375.6c0-1.2-0.3-2.1-0.9-2.8s-1.4-1-2.4-1c-1,0-1.8,0.3-2.4,0.9s-0.8,1.5-0.8,2.6
		l-1-4.7c0.6-1.3,1.5-2.3,2.5-3c1-0.7,2.2-1.1,3.4-1.1c1.5,0,2.7,0.3,3.8,1s1.8,1.7,2.4,3.1c0.5,1.3,0.8,2.9,0.8,4.8v11.8h-5.4
		V-375.6z"/>
	<path class="st8" d="M1421.9-384.2h5.4v28.7h-5.4V-384.2z M1428.9-364.4c-0.9-0.6-1.5-1.5-1.9-2.6l0.3-4.7c0,0.7,0.1,1.2,0.4,1.7
		c0.2,0.5,0.6,0.8,1,1.1c0.5,0.2,1,0.4,1.6,0.4c1,0,1.8-0.3,2.4-1s0.8-1.6,0.8-2.8v-3.2c0-1.2-0.3-2.2-0.8-2.9s-1.3-1-2.4-1
		c-0.6,0-1.2,0.1-1.6,0.4c-0.5,0.3-0.8,0.6-1,1.1c-0.2,0.5-0.4,1.1-0.4,1.8l-0.4-4.5c0.6-1.2,1.3-2.1,2.2-2.8s1.9-1,3-1
		c1.4,0,2.7,0.3,3.7,1c1,0.7,1.8,1.7,2.4,3.1s0.8,2.9,0.8,4.8v3.3c0,1.9-0.3,3.5-0.8,4.8s-1.3,2.3-2.4,3c-1,0.7-2.3,1-3.7,1
		C1430.8-363.5,1429.8-363.8,1428.9-364.4z"/>
	<path class="st8" d="M1447.2-364.5c-1.3-0.7-2.3-1.7-3-3c-0.7-1.3-1-2.9-1-4.8v-3.3c0-1.8,0.3-3.4,1-4.8c0.7-1.3,1.7-2.3,3-3
		c1.3-0.7,2.9-1,4.8-1c1.9,0,3.5,0.3,4.8,1c1.3,0.7,2.3,1.7,3,3c0.7,1.3,1,2.9,1,4.8v3.4c0,1.9-0.3,3.5-1,4.8c-0.7,1.3-1.7,2.3-3,3
		c-1.3,0.7-2.9,1-4.8,1C1450.2-363.5,1448.6-363.8,1447.2-364.5z M1454.5-369.6c0.6-0.6,0.9-1.5,0.9-2.7v-3.4c0-1.1-0.3-2-0.9-2.7
		c-0.6-0.6-1.5-0.9-2.5-0.9c-1.1,0-1.9,0.3-2.5,0.9c-0.6,0.6-0.9,1.5-0.9,2.7v3.4c0,1.2,0.3,2.1,0.9,2.7s1.4,1,2.5,1
		S1453.9-369,1454.5-369.6z"/>
</g>
<g>
	<g>
		
			<ellipse transform="matrix(0.6117 -0.7911 0.7911 0.6117 927.8005 704.0763)" class="st1" cx="1181.1" cy="-593.1" rx="7.2" ry="11"/>
		<polygon class="st1" points="1148.6,-658.9 1154.9,-654 1188.2,-594.1 1184.6,-589.4 1180.1,-596.6 1181.9,-599 		"/>
	</g>
	<ellipse class="st2" cx="1151.5" cy="-499" rx="53.5" ry="9"/>
	<ellipse class="st3" cx="1127.5" cy="-563" rx="66.5" ry="64"/>
	<g>
		<path class="st4" d="M1101.9-560.4c-1.3-21,38.6-20.9,55.2-30.5c1.9-1.1,8.6-4.2,10.7-4.7c6.1-1.3,21.2,16.5,19.1,30.6
			c-1.4,9.4-9.3,15.3-22,24c-18.5,12.7-32.8,15.8-48.9,14.8C1103.4-527,1102.7-548.6,1101.9-560.4z"/>
		<path d="M1129-552h8c-1,5.5-4.6,10-9,10s-8-4.5-8-10s3.6-10,8-10c3.8,0,7.1,3.4,7.8,8L1129-552z"/>
		<path d="M1167-570h8c0,5.5-3.6,10-8,10s-8-4.5-8-10s3.6-10,8-10c3.8,0,7.1,3.4,7.8,8L1167-570z"/>
	</g>
	<path class="st1" d="M1084-607c7.2,2.7,20.5,6,25,15c0.5,1,2.6,4.6,2.8,5c1.4,3.1,36.4-11.8,41.2-14.3c0.8-0.4,3.5-1.2,3.9-2.7
		c1.5-5.3-12.8-19.1-24.5-22.4C1110.4-632.5,1075.6-610.2,1084-607z"/>
	<path class="st5" d="M1072.1-596c2.5,1.7-2,14,0.4,26.9c0.1,0.3,0.3,1.6,1,3.8c2.7,8.9,7.5,25,19.2,36
		c13.4,12.5,33.8,16.4,49.9,13.3c21.5-4.2,39.6-21.6,42.4-18.9c2.1,2-5.3,10.4-13,18c-18,17.6-43.8,17.7-51,17
		c-8.2-0.8-19.9-3.6-31.6-12c-13.5-9.7-21.4-21.6-23.3-27c-3.1-8.9-4.8-17-4.1-33.9c0.3-6.2,0.9-12.7,5.8-17
		C1069.7-591.7,1070.7-597,1072.1-596z"/>
	<g>
		<ellipse class="st4" cx="1079" cy="-548.4" rx="14" ry="21.4"/>
		<ellipse class="st7" cx="1078.2" cy="-548" rx="7.2" ry="11"/>
		<polygon class="st1" points="1046,-614 1046,-606 1073,-543 1079,-543 1076,-551 1073,-551 		"/>
	</g>
</g>
<g>
	<g>
		<path class="st1" d="M1217.5-550.9c-1.3-0.3-2.5-0.7-3.7-1.2c-1.1-0.5-2.2-1.2-3.1-1.9l2.5-4.4c1.1,0.9,2.4,1.6,3.8,2.1
			c1.4,0.5,2.9,0.7,4.4,0.7c1.8,0,3.1-0.3,4.1-0.9c1-0.6,1.5-1.4,1.5-2.5v0c0-0.8-0.2-1.4-0.6-1.8c-0.4-0.4-1-0.8-1.7-1
			c-0.7-0.2-1.6-0.4-2.7-0.6c0,0-0.1,0-0.1,0c0,0-0.1,0-0.1,0l-0.4-0.1c-1.9-0.3-3.5-0.7-4.8-1.1c-1.3-0.5-2.3-1.2-3.2-2.4
			s-1.3-2.7-1.3-4.8v0c0-1.9,0.4-3.4,1.2-4.7c0.8-1.3,2-2.3,3.6-3c1.6-0.7,3.5-1,5.7-1c1,0,2.1,0.1,3.1,0.4s2.1,0.6,3.1,1
			c1,0.4,2,1,2.9,1.6l-2.3,4.6c-1.1-0.8-2.3-1.4-3.5-1.8c-1.2-0.4-2.4-0.6-3.5-0.6c-1.7,0-2.9,0.3-3.8,0.8c-0.9,0.5-1.4,1.3-1.4,2.3
			v0c0,0.8,0.2,1.5,0.7,2c0.5,0.5,1.1,0.8,1.8,1.1c0.7,0.2,1.7,0.5,2.9,0.7c0.1,0,0.1,0,0.2,0c0.1,0,0.1,0,0.2,0c0.1,0,0.2,0,0.2,0
			c0.1,0,0.1,0,0.2,0c1.8,0.4,3.3,0.8,4.5,1.3c1.2,0.5,2.2,1.3,3,2.4c0.8,1.1,1.2,2.7,1.2,4.6v0c0,1.8-0.4,3.4-1.3,4.7
			c-0.9,1.3-2.1,2.3-3.7,3c-1.6,0.7-3.6,1-5.9,1C1220.1-550.5,1218.8-550.6,1217.5-550.9z"/>
		<path class="st1" d="M1242.3-558.8c0,1,0.3,1.7,0.8,2.3s1.3,0.8,2.4,0.8c1,0,1.8-0.3,2.3-0.8c0.5-0.6,0.8-1.4,0.8-2.4l0.3,4.5
			c-0.4,1.1-1,2.1-1.9,2.8c-0.9,0.8-2,1.1-3.2,1.1c-2.2,0-3.9-0.7-5.1-2.1c-1.2-1.4-1.8-3.4-1.8-6v-12.6h5.4V-558.8z M1248.6-571.2
			h5.4v20.4h-5.4V-571.2z"/>
		<path class="st1" d="M1259.3-571.2h5.4v28.7h-5.4V-571.2z M1266.4-551.4c-0.9-0.6-1.5-1.5-1.9-2.6l0.3-4.7c0,0.7,0.1,1.2,0.4,1.7
			c0.2,0.5,0.6,0.8,1,1.1c0.5,0.2,1,0.4,1.6,0.4c1,0,1.8-0.3,2.4-1s0.8-1.6,0.8-2.8v-3.2c0-1.2-0.3-2.2-0.8-2.9
			c-0.6-0.7-1.3-1-2.4-1c-0.6,0-1.2,0.1-1.6,0.4c-0.5,0.3-0.8,0.6-1,1.1c-0.2,0.5-0.4,1.1-0.4,1.8l-0.4-4.5c0.6-1.2,1.3-2.1,2.2-2.8
			s1.9-1,3-1c1.4,0,2.7,0.3,3.7,1c1,0.7,1.8,1.7,2.4,3.1c0.5,1.3,0.8,2.9,0.8,4.8v3.3c0,1.9-0.3,3.5-0.8,4.8s-1.3,2.3-2.4,3
			c-1,0.7-2.3,1-3.7,1C1268.3-550.5,1267.2-550.8,1266.4-551.4z"/>
		<path class="st1" d="M1285-551.5c-1.4-0.7-2.5-1.8-3.2-3.1s-1.1-3-1.1-4.9v-2.3c0-2,0.4-3.7,1.1-5.2c0.7-1.4,1.7-2.5,3.1-3.3
			c1.3-0.7,3-1.1,4.9-1.1c1.8,0,3.3,0.4,4.6,1.3c1.3,0.9,2.2,2.2,2.9,3.9c0.7,1.7,1,3.7,1,6.1v1.3h-14v-3.6h9.1l-0.1-0.5
			c-0.1-1.2-0.5-2.1-1.1-2.7c-0.6-0.6-1.4-1-2.4-1c-1.3,0-2.3,0.4-3,1.2c-0.7,0.8-1.1,1.9-1.1,3.3v2.6c0,1.4,0.4,2.5,1.2,3.2
			c0.8,0.8,1.9,1.1,3.3,1.1c0.7,0,1.4-0.1,2.1-0.4c0.7-0.3,1.4-0.6,1.9-1.1l3.5,3.1c-1.1,1-2.3,1.7-3.6,2.3c-1.3,0.5-2.7,0.8-4,0.8
			C1288-550.5,1286.3-550.8,1285-551.5z"/>
		<path class="st1" d="M1302.8-571.2h5.8v20.4h-5.8V-571.2z M1313.4-566.1c-0.4-0.1-0.8-0.2-1.3-0.2c-1.1,0-1.9,0.4-2.5,1.1
			c-0.6,0.7-0.9,1.7-0.9,2.9l-0.4-5.3c0.6-1.2,1.3-2.2,2.2-2.8c0.9-0.7,1.9-1,3-1c0.9,0,1.6,0.1,2.3,0.4c0.7,0.3,1.3,0.7,1.8,1.2
			l-3.1,4.4C1314.1-565.8,1313.8-566,1313.4-566.1z"/>
		<path class="st9" d="M1327.3-579.4h21v5.2h-21V-579.4z M1335.1-577h5.4v26.3h-5.4V-577z"/>
		<path class="st9" d="M1350.3-571.2h5.8v20.4h-5.8V-571.2z M1360.8-566.1c-0.4-0.1-0.8-0.2-1.3-0.2c-1.1,0-1.9,0.4-2.5,1.1
			c-0.6,0.7-0.9,1.7-0.9,2.9l-0.4-5.3c0.6-1.2,1.3-2.2,2.2-2.8c0.9-0.7,1.9-1,3-1c0.9,0,1.6,0.1,2.3,0.4c0.7,0.3,1.3,0.7,1.8,1.2
			l-3.1,4.4C1361.5-565.8,1361.2-566,1360.8-566.1z"/>
		<path class="st9" d="M1368.1-552c-1.1-1-1.6-2.6-1.6-4.8c0-2,0.6-3.5,1.8-4.5c1.2-1,3-1.5,5.5-1.5h5.1l0.3,4.1h-5.4
			c-0.8,0-1.4,0.2-1.8,0.5c-0.4,0.3-0.6,0.8-0.6,1.5c0,0.7,0.3,1.2,0.8,1.5s1.3,0.5,2.3,0.5c1.4,0,2.5-0.2,3.2-0.5
			c0.7-0.3,1.1-0.8,1.1-1.5l0.4,3c-0.1,0.7-0.4,1.4-1,1.9c-0.6,0.5-1.3,0.9-2.2,1.2s-1.8,0.4-2.8,0.4
			C1370.8-550.5,1369.2-551,1368.1-552z M1378.7-563.7c0-0.9-0.3-1.7-0.9-2.2c-0.6-0.5-1.5-0.8-2.7-0.8c-0.8,0-1.5,0.1-2.3,0.4
			c-0.7,0.2-1.4,0.6-2,1l-3.3-3.3c0.8-0.9,1.9-1.7,3.2-2.2c1.3-0.5,2.8-0.8,4.4-0.8c1.8,0,3.3,0.3,4.6,0.9c1.3,0.6,2.2,1.5,2.9,2.6
			c0.7,1.1,1,2.5,1,4.1v13.1h-4.9V-563.7z"/>
		<path class="st9" d="M1388.9-571.2h5.4v20.4h-5.4V-571.2z M1400.8-562.6c0-1.2-0.3-2.1-0.9-2.8c-0.6-0.6-1.4-1-2.5-1
			c-1,0-1.8,0.3-2.3,0.8c-0.5,0.6-0.8,1.3-0.8,2.4l-0.4-4.5c0.6-1.3,1.4-2.2,2.3-2.9c0.9-0.7,2-1,3.2-1c1.4,0,2.7,0.3,3.7,1
			s1.8,1.7,2.4,3.1c0.5,1.3,0.8,2.9,0.8,4.8v11.8h-5.4V-562.6z M1412.7-562.6c0-1.2-0.3-2.1-0.9-2.8s-1.4-1-2.4-1
			c-1,0-1.8,0.3-2.4,0.9c-0.6,0.6-0.8,1.5-0.8,2.6l-1-4.7c0.6-1.3,1.5-2.3,2.5-3c1-0.7,2.2-1.1,3.4-1.1c1.5,0,2.7,0.3,3.8,1
			s1.8,1.7,2.4,3.1c0.5,1.3,0.8,2.9,0.8,4.8v11.8h-5.4V-562.6z"/>
		<path class="st9" d="M1423.4-571.2h5.4v28.7h-5.4V-571.2z M1430.5-551.4c-0.9-0.6-1.5-1.5-1.9-2.6l0.3-4.7c0,0.7,0.1,1.2,0.4,1.7
			c0.2,0.5,0.6,0.8,1,1.1c0.5,0.2,1,0.4,1.6,0.4c1,0,1.8-0.3,2.4-1s0.8-1.6,0.8-2.8v-3.2c0-1.2-0.3-2.2-0.8-2.9
			c-0.6-0.7-1.3-1-2.4-1c-0.6,0-1.2,0.1-1.6,0.4c-0.5,0.3-0.8,0.6-1,1.1c-0.2,0.5-0.4,1.1-0.4,1.8l-0.4-4.5c0.6-1.2,1.3-2.1,2.2-2.8
			s1.9-1,3-1c1.4,0,2.7,0.3,3.7,1c1,0.7,1.8,1.7,2.4,3.1c0.5,1.3,0.8,2.9,0.8,4.8v3.3c0,1.9-0.3,3.5-0.8,4.8s-1.3,2.3-2.4,3
			c-1,0.7-2.3,1-3.7,1C1432.4-550.5,1431.4-550.8,1430.5-551.4z"/>
		<path class="st9" d="M1448.8-551.5c-1.3-0.7-2.3-1.7-3-3c-0.7-1.3-1-2.9-1-4.8v-3.3c0-1.8,0.3-3.4,1-4.8c0.7-1.3,1.7-2.3,3-3
			c1.3-0.7,2.9-1,4.8-1c1.9,0,3.5,0.3,4.8,1c1.3,0.7,2.3,1.7,3,3c0.7,1.3,1,2.9,1,4.8v3.4c0,1.9-0.3,3.5-1,4.8c-0.7,1.3-1.7,2.3-3,3
			c-1.3,0.7-2.9,1-4.8,1C1451.7-550.5,1450.1-550.8,1448.8-551.5z M1456.1-556.6c0.6-0.6,0.9-1.5,0.9-2.7v-3.4c0-1.1-0.3-2-0.9-2.7
			c-0.6-0.6-1.5-0.9-2.5-0.9c-1.1,0-1.9,0.3-2.5,0.9c-0.6,0.6-0.9,1.5-0.9,2.7v3.4c0,1.2,0.3,2.1,0.9,2.7s1.4,1,2.5,1
			S1455.5-556,1456.1-556.6z"/>
	</g>
</g>
<image style="overflow:visible;" width="324" height="100" xlink:href="AA53A94A.jpg"  transform="matrix(1 0 0 1 566 -463)">
</image>
</svg>
