<?xml version="1.0" encoding="utf-8"?>
<!-- Generator: Adobe Illustrator 24.1.3, SVG Export Plug-In . SVG Version: 6.00 Build 0)  -->
<svg version="1.1" id="Layer_1" xmlns="http://www.w3.org/2000/svg" xmlns:xlink="http://www.w3.org/1999/xlink" x="0px" y="0px"
	 viewBox="0 0 48 48" style="enable-background:new 0 0 48 48;" xml:space="preserve">
<style type="text/css">
	.st0{fill:#FFFFFF;}
</style>
<path class="st0" d="M41,11H7v26h19.5v3H7c-0.8,0-1.5-0.3-2.1-0.9C4.3,38.5,4,37.8,4,37V11c0-0.8,0.3-1.5,0.9-2.1C5.5,8.3,6.2,8,7,8
	h34c0.8,0,1.5,0.3,2.1,0.9C43.7,9.5,44,10.2,44,11v15.5h-3V11z M40.3,40H31c-0.4,0-0.8-0.1-1.1-0.4c-0.3-0.3-0.4-0.6-0.4-1.1
	s0.1-0.8,0.4-1.1c0.3-0.3,0.6-0.4,1.1-0.4h9.3l-2.7-2.7c-0.3-0.3-0.4-0.7-0.4-1c0-0.4,0.2-0.8,0.5-1c0.3-0.3,0.7-0.5,1-0.5
	c0.4,0,0.8,0.1,1,0.5l5.2,5.2c0.3,0.3,0.5,0.7,0.5,1s-0.1,0.8-0.5,1l-5.2,5.2c-0.3,0.3-0.7,0.5-1,0.5s-0.8-0.2-1-0.5
	c-0.3-0.3-0.4-0.6-0.4-1c0-0.4,0.2-0.8,0.4-1L40.3,40z M7,11v26V26.5v0.2V11z M24,21.6L41,11v2.9L24.8,24.1
	c-0.2,0.2-0.5,0.3-0.8,0.3s-0.6-0.1-0.8-0.3L7,13.9V11L24,21.6z"/>
</svg>
