<?xml version="1.0" encoding="utf-8"?>
<!-- Generator: Adobe Illustrator 24.1.3, SVG Export Plug-In . SVG Version: 6.00 Build 0)  -->
<svg version="1.1" xmlns="http://www.w3.org/2000/svg" xmlns:xlink="http://www.w3.org/1999/xlink" x="0px" y="0px"
	 viewBox="0 0 1920 1080" style="enable-background:new 0 0 1920 1080;" xml:space="preserve">
<style type="text/css">
	.st0{fill:#0F032D;}
	.st1{fill:url(#SVGID_1_);}
	.st2{opacity:0.85;fill:url(#SVGID_2_);}
	.st3{opacity:0.58;clip-path:url(#SVGID_4_);fill:url(#SVGID_5_);}
	.st4{opacity:0.82;clip-path:url(#SVGID_4_);fill:url(#SVGID_6_);}
	.st5{opacity:0.39;clip-path:url(#SVGID_4_);}
	.st6{fill:url(#SVGID_7_);}
	.st7{fill:url(#SVGID_8_);}
	.st8{fill:url(#SVGID_9_);}
	.st9{fill:url(#SVGID_10_);}
	.st10{clip-path:url(#SVGID_4_);}
	.st11{clip-path:url(#SVGID_4_);fill:url(#SVGID_13_);}
	.st12{opacity:0.75;clip-path:url(#SVGID_4_);fill:url(#SVGID_14_);}
	.st13{clip-path:url(#SVGID_4_);fill:url(#SVGID_15_);}
	.st14{clip-path:url(#SVGID_17_);fill:none;stroke:url(#SVGID_18_);stroke-width:0.5;stroke-miterlimit:10;}
	.st15{clip-path:url(#SVGID_17_);fill:none;stroke:url(#SVGID_19_);stroke-width:0.5;stroke-miterlimit:10;}
	.st16{clip-path:url(#SVGID_17_);fill:none;stroke:url(#SVGID_20_);stroke-width:0.5;stroke-miterlimit:10;}
	.st17{clip-path:url(#SVGID_17_);fill:none;stroke:url(#SVGID_21_);stroke-width:0.5;stroke-miterlimit:10;}
	.st18{clip-path:url(#SVGID_17_);fill:none;stroke:url(#SVGID_22_);stroke-width:0.5;stroke-miterlimit:10;}
	.st19{opacity:0.65;clip-path:url(#SVGID_17_);}
	.st20{fill:url(#SVGID_23_);}
	.st21{fill:url(#SVGID_24_);}
	.st22{fill:url(#SVGID_25_);}
	.st23{fill:url(#SVGID_26_);}
	.st24{clip-path:url(#SVGID_17_);fill:none;stroke:url(#SVGID_27_);stroke-miterlimit:10;}
	.st25{clip-path:url(#SVGID_17_);fill:none;stroke:url(#SVGID_28_);stroke-miterlimit:10;}
	.st26{clip-path:url(#SVGID_17_);fill:none;stroke:url(#SVGID_29_);stroke-miterlimit:10;}
	.st27{clip-path:url(#SVGID_17_);fill:none;stroke:url(#SVGID_30_);stroke-width:0.5;stroke-miterlimit:10;}
	.st28{clip-path:url(#SVGID_17_);fill:none;stroke:url(#SVGID_31_);stroke-width:0.5;stroke-miterlimit:10;}
	.st29{clip-path:url(#SVGID_17_);fill:none;stroke:url(#SVGID_32_);stroke-width:0.5;stroke-miterlimit:10;}
	.st30{clip-path:url(#SVGID_17_);fill:none;stroke:url(#SVGID_33_);stroke-width:0.5;stroke-miterlimit:10;}
	.st31{clip-path:url(#SVGID_17_);}
	.st32{fill:none;stroke:url(#SVGID_34_);stroke-miterlimit:10;}
	.st33{fill:none;stroke:url(#SVGID_35_);stroke-miterlimit:10;}
	.st34{clip-path:url(#SVGID_17_);fill:none;stroke:url(#SVGID_36_);stroke-width:0.5;stroke-miterlimit:10;}
</style>
<g id="BACKGROUND_2">
	<g>
		<g>
			
				<rect x="-8.2" y="-9.2" transform="matrix(-1 -4.489665e-11 4.489665e-11 -1 1920 1070.7642)" class="st0" width="1936.4" height="1089.2"/>
			
				<radialGradient id="SVGID_1_" cx="702.9232" cy="239.9411" r="544.919" gradientTransform="matrix(-3.84 0 0 2.16 4646.3999 -626.4004)" gradientUnits="userSpaceOnUse">
				<stop  offset="0" style="stop-color:#FF40A0"/>
				<stop  offset="1" style="stop-color:#5F42AA"/>
			</radialGradient>
			<polygon class="st1" points="-8.2,1080 1928.2,1080 1928.2,-9.2 -8.2,-9.2 			"/>
			
				<radialGradient id="SVGID_2_" cx="702.9232" cy="239.9411" r="544.919" gradientTransform="matrix(-3.84 0 0 2.16 4646.3999 -626.4004)" gradientUnits="userSpaceOnUse">
				<stop  offset="0" style="stop-color:#FF40A0"/>
				<stop  offset="1" style="stop-color:#5F42AA"/>
			</radialGradient>
			<polygon class="st2" points="-8.2,1080 1928.2,1080 1928.2,-9.2 -8.2,-9.2 			"/>
		</g>
		<g>
			<g>
				<g>
					<defs>
						
							<rect id="SVGID_3_" x="-8.2" y="-9.2" transform="matrix(-1 -4.489665e-11 4.489665e-11 -1 1920 1070.7642)" width="1936.4" height="1089.2"/>
					</defs>
					<clipPath id="SVGID_4_">
						<use xlink:href="#SVGID_3_"  style="overflow:visible;"/>
					</clipPath>
					
						<linearGradient id="SVGID_5_" gradientUnits="userSpaceOnUse" x1="743.7561" y1="383.5682" x2="340.6968" y2="526.9882" gradientTransform="matrix(-1 0 0 1 1920 0)">
						<stop  offset="0" style="stop-color:#ED1E79"/>
						<stop  offset="1" style="stop-color:#ED1E79;stop-opacity:0"/>
					</linearGradient>
					<path class="st3" d="M1400.7,242.3c7.8,52.3-29.5,100.3-81,130.1c-51.5,29.8-113.2,55.1-137.5,103.7
						c-18.5,36.8-10.6,79.4,5.7,117c16.4,37.5,40.8,72.3,56.2,110.1c18.7,45.6,23.5,97.1,1.1,141.5c-26.4,52.4-88.8,93.9-89.1,150.8
						c-0.2,31.8,19.8,60.8,39.2,88.1c23.1,32.5,46.8,65.6,80.9,90.3c82.8,60.1,204.1,57.2,313,50.8c66.5-3.9,133.6-8,197.9-23
						c43.3-10.2,85.9-25.8,118.1-52.2c20.2-16.6,35.5-36.8,50.7-56.8c45.5-60,91.2-120.4,123.3-186.3
						c65.2-134.1,70.4-282.9,71.1-427.8c0.9-177-8.3-366.7-131.9-509.8c-29.6-34.3-65.7-65.2-109.2-86.5
						c-44.9-22-96.1-33.1-147.3-40.2c-117.5-16.4-238.7-12.5-354.8,10c-58.5,11.4-115.7,27.4-170.4,48.1c-34.8,13.1-129,36-128.1,73
						C1111.2,80,1384.9,136.6,1400.7,242.3z"/>
					
						<linearGradient id="SVGID_6_" gradientUnits="userSpaceOnUse" x1="-82.1789" y1="546.3481" x2="767.0095" y2="546.3481" gradientTransform="matrix(-1 0 0 1 1920 0)">
						<stop  offset="0" style="stop-color:#ED1E79"/>
						<stop  offset="1" style="stop-color:#ED1E79;stop-opacity:0"/>
					</linearGradient>
					<path class="st4" d="M1518.8,14.7c105.1,38.8,206,98,232.7,198.1c13.2,49.5,7.7,114.3-29.9,153.9
						c-54.7,57.5-158.7,56.9-232.2,96.6c-51.4,27.7-86.1,76.3-91.4,127.5c-9.6,94.4,74.4,188.7,39.2,278.6
						c-17.6,44.9-62.2,78.5-109.1,104.6c-46.8,26.1-98,47.1-139.8,78.6c-18.8,14.1-36.5,32.7-35.2,53.9
						c2.3,35.9,53.2,52.1,94.9,59.7c76.4,13.9,152.9,27.8,229.3,41.7c66.9,12.2,134.7,24.4,203,22c68.4-2.4,138.5-21.1,186.1-62.6
						c40.5-35.4,61-83.7,74.3-131.6c12.2-44,19.3-89.1,20.4-134.3c1.6-63.6-8.3-127.3-4-190.8c4-58.8,20.2-116.6,30.1-174.9
						c13.2-78.2,15-157.4,15.1-236.4c0.1-77.7-1.6-156.4-25.8-231.4c-16-49.8-42.9-98.5-87.7-133.6c-63.3-49.7-153.7-66.1-240-70.4
						c-124.9-6.2-251.3,9.2-369.2,44.5c-19.6,5.9-138.7,36.4-114.5,65.1c17.2,20.4,120.9,3.2,145.7,3.9
						C1382-20.8,1453.3-9.4,1518.8,14.7z"/>
					<g class="st5">
						
							<linearGradient id="SVGID_7_" gradientUnits="userSpaceOnUse" x1="524.9355" y1="692.0621" x2="370.1196" y2="1056.2483" gradientTransform="matrix(-0.9833 -0.1819 -0.1819 0.9833 2226.4927 54.7528)">
							<stop  offset="0" style="stop-color:#ED1E79"/>
							<stop  offset="1" style="stop-color:#ED1E79;stop-opacity:0"/>
						</linearGradient>
						<path class="st6" d="M1836.6,763.2c-51.2,7.7-99.3-19-146.3-37.8c-36.3-14.5-76.4-24.9-116.4-21.7c-40,3.3-80,22.3-96.1,53.4
							c-16.1,31.1-6.4,66.9,2.5,100.1c8.9,33.1,16.1,70-4,99.4c-29.6,43.3-103.6,50.2-139.7,89.8c-27.1,29.7-26,73.5-3.8,106
							c22.2,32.5,62.2,54.3,104.7,65.1c42.5,10.8,87.7,11.6,132.1,10c44.4-1.6,88.7-5.6,133.1-4c29.8,1.1,60,4.6,89.4,0.2
							c59-8.8,106-48.6,132.7-93.8c26.7-45.2,36.5-96,47.6-145.6c12.5-55.8,27.1-112.3,21.8-168.9c-2.5-27.2-12.9-83.8-48.6-95.4
							c-20.5-6.6-36.3,10.4-50.9,19.7C1877.5,750.7,1858.2,760,1836.6,763.2z"/>
						
							<linearGradient id="SVGID_8_" gradientUnits="userSpaceOnUse" x1="449.2441" y1="715.1719" x2="279.3629" y2="1093.6565" gradientTransform="matrix(-0.9889 -0.1213 -0.1213 0.9889 2124.3284 36.5019)">
							<stop  offset="0" style="stop-color:#ED1E79"/>
							<stop  offset="1" style="stop-color:#ED1E79;stop-opacity:0"/>
						</linearGradient>
						<path class="st7" d="M1953.3,802.2c-17.8-5.6-33.8,6.6-48.4,13.2c-5.2,2.3-10.4,4.6-15.7,6.3c-12.4,4.2-25.4,6.9-39.2,7.7
							c-14.8,0.8-29.3-0.6-43.8-3.2c-31.6-5.5-63-15.3-92.3-20.7c-31.3-5.8-62.6-8.2-93.1-0.3c-30.3,7.8-59.8,26.7-73.7,53.5
							c-13.5,26.2-10.1,55.4-8.2,82c0.6,8.8,1,17.7,0.5,26.6c-0.9,17.9-5.1,35.4-18,50.2c-14.4,16.5-36.8,26-59.7,34.4
							c-22.7,8.4-46.5,15.9-62.3,31.8c-12.2,12.4-17.1,28.9-15.9,44.8c1.2,16.4,8.4,32.4,19.3,46.1c21.1,26.7,54.8,45.9,90.9,56.5
							c27.8,8.2,57.1,11.7,86.7,12.4c8.9,0.2,17.9,0.2,26.8-0.1c38.3-1,76.7-5,114.7-6.3c26.5-0.9,53.1-0.7,79-6.1
							c51.5-10.7,94.3-43.4,121.4-81.6c26.1-36.7,39.3-78.6,51.6-120.4c9.4-31.6,18.3-63.9,21.9-96.5c1.7-15.4,2.3-32.1,0.8-48.8
							C1994.4,858,1984.8,812.1,1953.3,802.2z"/>
						
							<linearGradient id="SVGID_9_" gradientUnits="userSpaceOnUse" x1="364.4668" y1="781.9719" x2="195.5402" y2="1139.0958" gradientTransform="matrix(-0.9944 -6.063334e-02 -6.063334e-02 0.9944 2022.1642 18.2509)">
							<stop  offset="0" style="stop-color:#ED1E79"/>
							<stop  offset="1" style="stop-color:#ED1E79;stop-opacity:0"/>
						</linearGradient>
						<path class="st8" d="M1961.3,891.6c-15.2-4.6-31.2,2.9-46,6.7c-5.1,1.3-10.2,2.5-15.1,3.2c-11.9,1.6-24,1.9-36.5,1.3
							c-13.4-0.7-26.7-2.7-40-4.6c-29.3-4.3-59.2-7.8-85.8-5.3c-25.9,2.4-48.8,8.5-69.8,21c-20.6,12.3-39.7,31.1-51.3,53.7
							c-10.9,21.2-13.7,43.8-18.9,64c-1.7,6.6-3.7,13.2-6.3,19.7c-5.1,12.7-12.4,24.7-24.6,34.5c-13.9,11.1-32.5,17.6-51.4,22.3
							c-19,4.7-39.4,8.1-52.9,20.4c-11.2,10.2-14.4,25.3-11.4,38.7c3,13.7,11.5,26.1,22,37c20,20.9,47.5,37.4,77,47.8
							c23,8.1,47.3,12.7,72.3,14.2c7.5,0.4,15.1,0.6,22.6,0.5c32.3-0.3,64.7-4.6,96.3-8.6c23.2-2.9,46.2-6,68.6-12.5
							c43.9-12.5,82.4-38.2,110.2-69.3c25.4-28.3,42.1-61.3,55.6-95.1c10.5-26,18.9-53,22.5-80.5c1.5-12.1,2.3-26.6,1-41.3
							C1997.4,935,1988.5,899.9,1961.3,891.6z"/>
						
							<linearGradient id="SVGID_10_" gradientUnits="userSpaceOnUse" x1="281.1249" y1="872.5209" x2="124.1604" y2="1187.9301" gradientTransform="matrix(-1 0 0 1 1920 0)">
							<stop  offset="0" style="stop-color:#ED1E79"/>
							<stop  offset="1" style="stop-color:#ED1E79;stop-opacity:0"/>
						</linearGradient>
						<path class="st9" d="M1841.6,975.5c-27-3.1-55.6-1.1-79.3,10.2c-64.4,30.6-65.6,111-118.2,154.9c-19.8,16.5-46.6,27-74.4,29
							c-15.2,1.1-32.2,0.3-43.5,8.9c-10.3,7.9-11.8,21.6-7,32.7c4.8,11,14.7,19.9,24.8,27.9c33.8,27.1,74.8,50,121.1,55.2
							c32.3,3.6,65.1-1.7,96.2-9.7c58.3-15,113.5-39.9,157-75.9c43.5-36,74.7-83.3,82.8-134.3c4-24.9,3.9-77.6-31.6-87.9
							c-16.8-4.9-40.1,1.9-58,0.3C1888,984.7,1865.2,978.2,1841.6,975.5z"/>
					</g>
					<g class="st10">
						<defs>
							<polygon id="SVGID_11_" points="1189.8,-192.2 1972.1,467.8 1686.8,467.8 1673.9,465.7 950.3,-144.8 966.5,-204.2 							"/>
						</defs>
						<clipPath id="SVGID_12_">
							<use xlink:href="#SVGID_11_"  style="overflow:visible;"/>
						</clipPath>
					</g>
					
						<linearGradient id="SVGID_13_" gradientUnits="userSpaceOnUse" x1="2028.8441" y1="341.0319" x2="1688.2855" y2="518.5059" gradientTransform="matrix(-1 0 0 1 1920 0)">
						<stop  offset="0" style="stop-color:#3FA9F5"/>
						<stop  offset="1" style="stop-color:#3FA9F5;stop-opacity:0"/>
					</linearGradient>
					<path class="st11" d="M491.1,201.8c2.4,17.4,2.7,35.3-1.8,52.4c-14,53.6-70.9,90.8-126.4,119.6
						c-55.5,28.8-116.3,56.4-148.5,104.1c-30.1,44.5-29.8,98.8-24.9,149.9c4.9,51.1,13.4,103.5-2.9,152.8
						c-9.5,28.9-27.2,55.4-45.5,81.1C110,905.3,72,950.6,14.4,965.5c-3.9,1-8.2,1.9-12,0.5c-2.7-1-4.7-3-6.5-4.9
						c-32.7-33.8-61.5-73.7-61.3-117.4c0.1-27.1,11.5-53.2,19-79.6C-31.7,712.6-31.8,659-31.5,606c0.1-11.6,0.3-23.8,7.2-33.8
						c3.5-5.1,8.7-9.4,11.6-14.8c3.6-6.7,3.5-14.3,2.8-21.7c-3-34.3-15.3-69.1-5.2-102.4c12.7-42.2,57.4-70.8,95.8-99.9
						c38.3-29.1,75.4-69.2,65-111.9c-4.7-19.1-18.5-35.7-34.1-50c-19.4-17.7-42.2-32.8-67.2-44.4c-15.9-7.4-33-13.6-46.8-23.6
						C-31.3,83-42.1,46.5-28.2,16.9c14.5-31,51.9-51,90.5-58.2c90.3-16.9,208.3,10.8,284.9,52.9C424,53.9,480.5,124.3,491.1,201.8z"
						/>
					
						<radialGradient id="SVGID_14_" cx="1208.4398" cy="399.2738" r="90.8194" gradientTransform="matrix(-2.56 0 0 2.16 3417.6001 -626.4004)" gradientUnits="userSpaceOnUse">
						<stop  offset="0" style="stop-color:#3FA9F5"/>
						<stop  offset="1" style="stop-color:#3FA9F5;stop-opacity:0"/>
					</radialGradient>
					<path class="st12" d="M146.4,471.4c30.9-39.1,77-67.5,124.3-92.3c47.6-24.9,100.3-49.6,124.4-92.3
						c23.8-42.3,13-93.9-14.2-134.7c-27.3-40.8-69-73.1-110.1-104.7c-26.3-20.3-52.7-40.5-79-60.8c-12-9.2-24.8-19.8-26.1-33.4
						c-2-20.1,21.2-35,42.7-43.7c100.3-40.9,228.4-35.9,315.8,22.3c29.6,19.7,53.9,44.7,73.6,71.8c41,56.4,62.4,123.5,55.8,189.5
						c-6.5,65.9-41.8,130.3-100.3,174.3c-30.3,22.8-65.8,39.9-98.2,60.6c-76,48.5-132.6,115.4-181.6,184.4
						c-12.4,17.4-24.6,35.3-41.8,49.6c-17.2,14.3-40.3,24.8-64.4,23.7C59.1,680.9,112.4,514.4,146.4,471.4z"/>
					
						<radialGradient id="SVGID_15_" cx="924.7006" cy="747.9772" r="77.7422" gradientTransform="matrix(-2.56 0 0 2.16 3417.6001 -626.4004)" gradientUnits="userSpaceOnUse">
						<stop  offset="0" style="stop-color:#ED1E79"/>
						<stop  offset="1" style="stop-color:#ED1E79;stop-opacity:0"/>
					</radialGradient>
					<path class="st13" d="M993.3,1000.2c12.3-26.5,36-48.2,61.9-66.4c13.2-9.2,27.2-18,37.1-29.7c14.2-16.9,18.3-39,13.8-59.4
						c-4.5-20.4-17.1-39.1-33.3-54.6c-29.5-28.3-72.6-47.1-117.3-48.1c-44.8-1-88.6,15.7-121.9,41c-33.3,25.3-56.7,58.8-73.2,93.9
						c-10.7,22.9-18.7,46.9-19.8,71.4c-1.9,42.3,16.7,83.6,42.7,119.8c20.6,28.7,47.5,55.9,84.3,68.6c18,6.2,37.6,8.6,57,9.4
						c16.7,0.7,34.3-0.1,48.4-7.6c15.4-8.2,21.4-22.8,15.3-36.6C981.2,1085.2,970.3,1049.5,993.3,1000.2z"/>
				</g>
				<g>
					<defs>
						
							<rect id="SVGID_16_" x="-8.2" y="-9.2" transform="matrix(-1 -4.489665e-11 4.489665e-11 -1 1920 1070.7642)" width="1936.4" height="1089.2"/>
					</defs>
					<clipPath id="SVGID_17_">
						<use xlink:href="#SVGID_16_"  style="overflow:visible;"/>
					</clipPath>
					
						<linearGradient id="SVGID_18_" gradientUnits="userSpaceOnUse" x1="365.5731" y1="610.9026" x2="528.5547" y2="610.9026" gradientTransform="matrix(-1 0 0 1 1920 0)">
						<stop  offset="0" style="stop-color:#FF40A0"/>
						<stop  offset="1" style="stop-color:#5F42AA"/>
					</linearGradient>
					<line class="st14" x1="1391.6" y1="542.3" x2="1554.3" y2="679.5"/>
					
						<linearGradient id="SVGID_19_" gradientUnits="userSpaceOnUse" x1="543.0782" y1="521.4036" x2="563.1952" y2="521.4036" gradientTransform="matrix(-1 0 0 1 1920 0)">
						<stop  offset="0" style="stop-color:#FF40A0"/>
						<stop  offset="1" style="stop-color:#5F42AA"/>
					</linearGradient>
					<line class="st15" x1="1357" y1="513.1" x2="1376.8" y2="529.8"/>
					
						<linearGradient id="SVGID_20_" gradientUnits="userSpaceOnUse" x1="987.1636" y1="191.0928" x2="1144.7665" y2="191.0928" gradientTransform="matrix(-1 0 0 1 1920 0)">
						<stop  offset="0" style="stop-color:#00EFA9"/>
						<stop  offset="1" style="stop-color:#3F56F0"/>
					</linearGradient>
					<line class="st16" x1="775.4" y1="124.7" x2="932.7" y2="257.4"/>
					
						<linearGradient id="SVGID_21_" gradientUnits="userSpaceOnUse" x1="602.4617" y1="172.5759" x2="659.3707" y2="172.5759" gradientTransform="matrix(-1 0 0 1 1920 0)">
						<stop  offset="0" style="stop-color:#FF40A0"/>
						<stop  offset="1" style="stop-color:#5F42AA"/>
					</linearGradient>
					<line class="st17" x1="1260.8" y1="148.7" x2="1317.4" y2="196.4"/>
					
						<linearGradient id="SVGID_22_" gradientUnits="userSpaceOnUse" x1="679.7035" y1="20.7181" x2="947.2517" y2="20.7181" gradientTransform="matrix(-1 0 0 1 1920 0)">
						<stop  offset="0" style="stop-color:#FF40A0"/>
						<stop  offset="1" style="stop-color:#5F42AA"/>
					</linearGradient>
					<line class="st18" x1="972.9" y1="-92" x2="1240.1" y2="133.5"/>
					<g class="st19">
						
							<linearGradient id="SVGID_23_" gradientUnits="userSpaceOnUse" x1="1427.9026" y1="865.6499" x2="1716.1913" y2="863.0051" gradientTransform="matrix(-1 0 0 1 1920 0)">
							<stop  offset="0" style="stop-color:#3FA9F5"/>
							<stop  offset="1" style="stop-color:#3FA9F5;stop-opacity:0"/>
						</linearGradient>
						<path class="st20" d="M471.3,1067.7c-26.9-35.9-34-82-18.9-122.5c14.6-39,47.6-71,68.7-107.9c34.4-60.1,34.7-133.4,0.6-193.7
							c-28-49.6-91-92.8-153.9-78.4c-46.4,10.6-77.4,48.9-122.6,63c-34.1,10.6-74.5,5.4-103.2-13.4C97.3,585.6,83.7,530,35.9,504.5
							c-43.6-23.2-104.6-12.3-142.1,17.6c-37.5,29.9-54.1,74.5-57.2,117.9c-3.1,43.4,5.9,86.7,12.4,129.8
							c9.5,63.5,13.5,128.8-5.2,190.8c-9.9,32.7-26,64.7-26,98.5c0,41.2,24.5,79.9,55.6,111.6c17.9,18.2,38.6,34.9,63.8,45.3
							c36.1,14.8,77.8,15.1,117.9,14.2c131.1-3,261.8-16.1,390.1-39c30.6-5.5,143.1-11.7,132-48
							C569.3,1117.3,492,1095.3,471.3,1067.7z"/>
						
							<linearGradient id="SVGID_24_" gradientUnits="userSpaceOnUse" x1="1508.5826" y1="855.512" x2="1791.8766" y2="941.3695" gradientTransform="matrix(-1 0 0 1 1920 0)">
							<stop  offset="0" style="stop-color:#3FA9F5"/>
							<stop  offset="1" style="stop-color:#3FA9F5;stop-opacity:0"/>
						</linearGradient>
						<path class="st21" d="M423.7,740.4c-21.5-42.4-67.9-75.6-114.8-71.4c-37.3,3.4-64.5,27.4-97.4,35.2
							c-18.8,4.4-40.1,4.2-59.2,0.8c-9.3-1.7-18.1-4.2-26-7.6c-20.7-9-34.6-22.6-48.6-34.5c-11.4-9.6-22.9-18.2-39-22.6
							c-32.9-8.9-77.4,5.4-109.8,29.1c-28.8,21.1-43.6,51.7-49.5,81.4c-1.1,5.6-1.9,11.2-2.4,16.8c-2.5,24.2-0.7,48.7,0,73.4
							c1.3,45.1-0.5,92.8-14.4,139.2c-4.2,13.9-7.6,27.9-10,41.8c-2.7,15.8-4,31.6-1.6,47.4c5.3,35.8,29.8,68.5,59.5,95.6
							c15.2,13.9,32.1,26.9,52.2,35.4c29,12.2,62,14.5,94.1,15.6c38.6,1.4,77.5,1.5,116.2,0.5c65.9-1.8,132.2-7.3,197.5-16.9
							c27.4-4,106.7-9.2,108.7-35.7c1.3-17.7-25.6-38.3-55.5-57.7c-4.5-2.9-8.4-6-11.4-9.2c-24.9-26.2-35.8-60.4-31.8-93.5
							c0.3-2.1,0.6-4.2,0.9-6.3c6-34,26.5-64.3,41.6-97.3C446.2,849.4,449.1,790.6,423.7,740.4z"/>
						
							<linearGradient id="SVGID_25_" gradientUnits="userSpaceOnUse" x1="1579.1251" y1="887.6251" x2="1804.1149" y2="1040.7948" gradientTransform="matrix(-1 0 0 1 1920 0)">
							<stop  offset="0" style="stop-color:#3FA9F5"/>
							<stop  offset="1" style="stop-color:#3FA9F5;stop-opacity:0"/>
						</linearGradient>
						<path class="st22" d="M324,839c-14.9-35.3-45.3-59.5-75.6-64.3c-28.8-4.5-52,5.3-72.3,7.4c-14.9,1.6-31.4,1.3-46.4,1
							c-7.3-0.2-14.2-0.6-20.6-1.2c-16.7-1.7-29.2-4.8-40.5-5.9c-9.3-0.9-17.9-0.6-28.5,2c-22.4,5.6-49.9,23.2-77.5,40.7
							c-19.8,12.5-33.1,28.8-41.7,44.9c-1.6,3-3,6-4.3,9.1c-5.7,13.2-9.1,27.1-12.9,41.5c-7,26.9-14.5,56.8-23.6,87.5
							c-3.7,12.6-4.7,25.6-4.3,38.2c0.4,14.2,2.6,28.1,7.3,41.7c10.7,30.4,35,57.4,63.3,79.6c12.3,9.7,25.5,18.9,40.6,25.5
							c22,9.7,46.3,13.8,70.3,17.1c28.9,3.9,58.1,6.6,87.4,8.4c49.6,3,100.2,2.8,150-2.2c24.4-2.5,73.6-8,85.3-23.4
							c11-14.5,13.1-35.6-17.4-51.8c-3.9-2.1-7.4-4.3-10.5-6.7c-24.3-18.7-38.4-44.3-42.3-71.9c-0.2-1.7-0.4-3.5-0.6-5.2
							c-2.6-29,5.5-57.4,14.4-86.8C335.7,923.6,340.8,879,324,839z"/>
						
							<linearGradient id="SVGID_26_" gradientUnits="userSpaceOnUse" x1="1679.9119" y1="942.8717" x2="1812.2296" y2="1110.0098" gradientTransform="matrix(-1 0 0 1 1920 0)">
							<stop  offset="0" style="stop-color:#3FA9F5"/>
							<stop  offset="1" style="stop-color:#3FA9F5;stop-opacity:0"/>
						</linearGradient>
						<path class="st23" d="M231.8,1129.7c-13.2-25-17-53.1-14.9-80.4c2.3-30.5,9-61.2,0.5-90.9c-18.9-66.2-70.3-74.3-83.6-77.6
							c-11-2.7-22.8-1.6-33.7,1.2c-18.8,4.8-35.8,14.7-47.7,27.9c-23.2,25.6-29.3,64.1-63.3,78.8c-12.4,5.4-26.7,6.5-40.1,9.7
							c-26.8,6.3-52,22.7-58.7,45.5c-3.3,11.3-1.9,23.2,1.3,34.5c11.2,40.4,43.6,75.2,83.4,99.6c39.8,24.4,86.6,39.4,134.1,50.5
							c53.9,12.5,113.1,19.9,164.4,1.3c22.7-8.2,52-33.5,20.7-45.8C265.4,1172.8,244.9,1154.6,231.8,1129.7z"/>
					</g>
					
						<linearGradient id="SVGID_27_" gradientUnits="userSpaceOnUse" x1="790.5635" y1="775.014" x2="850.592" y2="775.014" gradientTransform="matrix(-1 0 0 1 1920 0)">
						<stop  offset="0" style="stop-color:#FF40A0"/>
						<stop  offset="1" style="stop-color:#5F42AA"/>
					</linearGradient>
					<line class="st24" x1="1069.7" y1="750" x2="1129.1" y2="800.1"/>
					
						<linearGradient id="SVGID_28_" gradientUnits="userSpaceOnUse" x1="751.8353" y1="824.0296" x2="773.1352" y2="824.0296" gradientTransform="matrix(-1 0 0 1 1920 0)">
						<stop  offset="0" style="stop-color:#FF40A0"/>
						<stop  offset="1" style="stop-color:#5F42AA"/>
					</linearGradient>
					<line class="st25" x1="1147.2" y1="815.3" x2="1167.8" y2="832.7"/>
					
						<linearGradient id="SVGID_29_" gradientUnits="userSpaceOnUse" x1="1006.9168" y1="730.7587" x2="1023.1483" y2="730.7587" gradientTransform="matrix(-1 0 0 1 1920 0)">
						<stop  offset="0" style="stop-color:#FF40A0"/>
						<stop  offset="1" style="stop-color:#5F42AA"/>
					</linearGradient>
					<line class="st26" x1="897.2" y1="724.2" x2="912.8" y2="737.3"/>
					
						<linearGradient id="SVGID_30_" gradientUnits="userSpaceOnUse" x1="730.8979" y1="1031.7161" x2="986.8406" y2="1031.7161" gradientTransform="matrix(-1 0 0 1 1920 0)">
						<stop  offset="0" style="stop-color:#00EFA9"/>
						<stop  offset="1" style="stop-color:#3F56F0"/>
					</linearGradient>
					<line class="st27" x1="933.3" y1="923.9" x2="1188.9" y2="1139.6"/>
					
						<linearGradient id="SVGID_31_" gradientUnits="userSpaceOnUse" x1="940.0298" y1="232.5805" x2="966.1855" y2="232.5805" gradientTransform="matrix(-1 0 0 1 1920 0)">
						<stop  offset="0" style="stop-color:#FF40A0"/>
						<stop  offset="1" style="stop-color:#5F42AA"/>
					</linearGradient>
					<line class="st28" x1="954" y1="221.7" x2="979.8" y2="243.5"/>
					
						<linearGradient id="SVGID_32_" gradientUnits="userSpaceOnUse" x1="471.3956" y1="420.4825" x2="495.4206" y2="420.4825" gradientTransform="matrix(-1 0 0 1 1920 0)">
						<stop  offset="0" style="stop-color:#FF40A0"/>
						<stop  offset="1" style="stop-color:#5F42AA"/>
					</linearGradient>
					<line class="st29" x1="1424.7" y1="410.5" x2="1448.4" y2="430.5"/>
					
						<linearGradient id="SVGID_33_" gradientUnits="userSpaceOnUse" x1="1463.2264" y1="110.0697" x2="1627.5804" y2="110.0697" gradientTransform="matrix(-1 0 0 1 1920 0)">
						<stop  offset="0" style="stop-color:#00EFA9"/>
						<stop  offset="1" style="stop-color:#3F56F0"/>
					</linearGradient>
					<line class="st30" x1="292.6" y1="40.9" x2="456.6" y2="179.3"/>
					<g class="st31">
						
							<linearGradient id="SVGID_34_" gradientUnits="userSpaceOnUse" x1="843.118" y1="589.0085" x2="882.7956" y2="589.0085" gradientTransform="matrix(-1 0 0 1 1920 0)">
							<stop  offset="0" style="stop-color:#FF40A0"/>
							<stop  offset="1" style="stop-color:#5F42AA"/>
						</linearGradient>
						<line class="st32" x1="1037.5" y1="572.5" x2="1076.6" y2="605.5"/>
						
							<linearGradient id="SVGID_35_" gradientUnits="userSpaceOnUse" x1="894.9324" y1="559.7916" x2="902.7056" y2="559.7916" gradientTransform="matrix(-1 0 0 1 1920 0)">
							<stop  offset="0" style="stop-color:#FF40A0"/>
							<stop  offset="1" style="stop-color:#5F42AA"/>
						</linearGradient>
						<line class="st33" x1="1017.6" y1="556.8" x2="1024.7" y2="562.8"/>
					</g>
					
						<linearGradient id="SVGID_36_" gradientUnits="userSpaceOnUse" x1="1043.1318" y1="310.6104" x2="1066.1263" y2="310.6104" gradientTransform="matrix(-1 0 0 1 1920 0)">
						<stop  offset="0" style="stop-color:#00EFA9"/>
						<stop  offset="1" style="stop-color:#3F56F0"/>
					</linearGradient>
					<line class="st34" x1="854" y1="301" x2="876.7" y2="320.2"/>
				</g>
			</g>
		</g>
	</g>
</g>
<g id="BACKGROUND_1">
</g>
<g id="DESIGNED_BY_FREEPIK">
</g>
</svg>
