<?xml version="1.0" encoding="utf-8"?>
<!-- Generator: Adobe Illustrator 24.1.3, SVG Export Plug-In . SVG Version: 6.00 Build 0)  -->
<svg version="1.1" xmlns="http://www.w3.org/2000/svg" xmlns:xlink="http://www.w3.org/1999/xlink" x="0px" y="0px"
	 viewBox="0 0 3724 2100" style="enable-background:new 0 0 3724 2100;" xml:space="preserve">
<style type="text/css">
	.st0{fill:url(#SVGID_1_);}
	.st1{fill:url(#SVGID_2_);}
	.st2{fill:url(#SVGID_3_);}
	.st3{fill:url(#SVGID_4_);}
	.st4{fill:url(#SVGID_5_);}
	.st5{fill:url(#SVGID_6_);}
	.st6{clip-path:url(#SVGID_8_);}
	.st7{opacity:0.8;fill:url(#SVGID_9_);}
	.st8{fill:url(#SVGID_10_);}
	.st9{opacity:0.8;fill:url(#SVGID_11_);}
	.st10{fill:url(#SVGID_12_);}
	.st11{opacity:0.8;fill:url(#SVGID_13_);}
	.st12{fill:url(#SVGID_14_);}
	.st13{opacity:0.8;fill:url(#SVGID_15_);}
	.st14{fill:url(#SVGID_16_);}
	.st15{opacity:0.8;fill:url(#SVGID_17_);}
	.st16{fill:url(#SVGID_18_);}
	.st17{opacity:0.5;}
	.st18{fill:url(#SVGID_19_);}
	.st19{fill:url(#SVGID_20_);}
	.st20{fill:url(#SVGID_21_);}
	.st21{fill:url(#SVGID_22_);}
	.st22{fill:url(#SVGID_23_);}
	.st23{fill:url(#SVGID_24_);}
	.st24{fill:url(#SVGID_25_);}
	.st25{fill:url(#SVGID_26_);}
	.st26{fill:url(#SVGID_27_);}
	.st27{fill:url(#SVGID_28_);}
	.st28{fill:url(#SVGID_29_);}
</style>
<g id="background">
	<linearGradient id="SVGID_1_" gradientUnits="userSpaceOnUse" x1="1862" y1="-115.857" x2="1862" y2="2437.071">
		<stop  offset="0" style="stop-color:#5A5A75"/>
		<stop  offset="1" style="stop-color:#292E3F"/>
	</linearGradient>
	<rect class="st0" width="3724" height="2100"/>
</g>
<g id="wave_shapes">
	<g id="gray">
		<linearGradient id="SVGID_2_" gradientUnits="userSpaceOnUse" x1="1835.8379" y1="-4.1056" x2="-2206.4448" y2="613.0355">
			<stop  offset="0" style="stop-color:#5A5A75"/>
			<stop  offset="1" style="stop-color:#292E3F"/>
		</linearGradient>
		<path class="st1" d="M2055.1,0c-44.9,121.8-123,224.6-217.2,264.7c-191.5,81.6-313.1-154.2-648-154.3
			C804.9,110.3,731,421.7,346.4,419c-133-0.9-250.1-39.1-346.4-88.7V0H2055.1z"/>
		<linearGradient id="SVGID_3_" gradientUnits="userSpaceOnUse" x1="5265.5073" y1="1664.2155" x2="1922.6348" y2="2034.5005">
			<stop  offset="0" style="stop-color:#5A5A75"/>
			<stop  offset="1" style="stop-color:#292E3F"/>
		</linearGradient>
		<path class="st2" d="M3724,1771.4V2100H695.3c66.4-96.5,173.3-180.8,288.2-202.8c195.1-37.4,247.5,137,484.1,157.3
			c323.1,27.7,409.3-281.6,761.1-318.9c326.1-34.5,341.3,221.6,740.6,246.9C3215.4,1998,3493.8,1918.6,3724,1771.4z"/>
	</g>
	<g id="orange">
		<linearGradient id="SVGID_4_" gradientUnits="userSpaceOnUse" x1="1742.7222" y1="604.8086" x2="2189.5867" y2="2272.6807">
			<stop  offset="0" style="stop-color:#F7931E"/>
			<stop  offset="1" style="stop-color:#C1272D"/>
		</linearGradient>
		<path class="st3" d="M3724,0v1347c-101.7,123.7-268.9,284.9-501,321.9c-265,42.3-484.4-98-655.3-154.6
			c-53-27.8-104.5-54.5-156.8-75.4c0,0,0,0-0.1,0c-0.8-0.3-1.7-0.7-2.5-1c-1.4-0.6-2.9-1.1-4.3-1.7c-1.4-0.6-2.9-1.1-4.3-1.7
			c-4.3-1.6-8.5-3.2-12.8-4.8l-3-1.1c-10.4-3.7-20.8-7.2-31.4-10.4c-0.9-0.3-1.9-0.6-2.8-0.8c-2.8-0.8-5.6-1.6-8.3-2.4
			c-1.8-0.5-3.7-1-5.6-1.5c-1.9-0.5-3.7-1-5.6-1.5c-0.8-0.2-1.5-0.4-2.2-0.6c-0.6-0.2-1.2-0.3-1.9-0.5c-1-0.3-2.1-0.5-3.1-0.8
			c-0.5-0.1-1.1-0.3-1.6-0.4c-0.8-0.2-1.6-0.4-2.4-0.6c-0.9-0.2-1.9-0.4-2.8-0.6c-2.1-0.5-4.1-0.9-6.2-1.4c-1.7-0.4-3.3-0.7-5-1.1
			c-0.2,0-0.3-0.1-0.5-0.1c-1.7-0.3-3.5-0.7-5.2-1c-0.9-0.2-1.9-0.4-2.8-0.5c-2.8-0.5-5.7-1-8.5-1.5c-7-1.2-14-2.2-21.1-3.1
			c-1.9-0.2-3.7-0.5-5.6-0.7c-0.7-0.1-1.3-0.2-2-0.2c-2.3-0.3-4.5-0.5-6.8-0.7c-0.6-0.1-1.3-0.1-1.9-0.2c-5.8-0.5-11.7-0.9-17.6-1.2
			c-0.9-0.1-1.8-0.1-2.8-0.1c-0.6,0-1.1-0.1-1.7-0.1c-1.1,0-2.2-0.1-3.3-0.1c-1.1,0-2.1-0.1-3.2-0.1c-43.5-1-89,4.5-137.4,18.6
			c-263.7,76.5-290.1,312.8-548.6,329.1c-236.4,15-317-175.5-528-171.4c-130.5,2.6-314.4,79.6-534.1,527.1H0V815.1
			c107.5,62.3,267.5,131.4,452.7,113.2c185.3-18.2,269-111.3,386.8-198.5c0,0,0,0,0,0c1.4-1,2.7-2,4.1-3c5.1-3.7,10.2-7.4,15.4-11.1
			c4.9-3.5,9.8-6.9,14.8-10.3c1.7-1.2,3.4-2.3,5.1-3.5c2-1.4,4.1-2.7,6.1-4.1c1.2-0.8,2.5-1.6,3.7-2.4l1.1-0.7c1.6-1,3.1-2,4.7-3
			c3.4-2.2,6.8-4.3,10.3-6.5c0.3-0.2,0.7-0.4,1.1-0.6c1.6-1,3.2-2,4.8-2.9c1.8-1.1,3.7-2.2,5.5-3.3c1.8-1.1,3.7-2.2,5.6-3.3
			c0.9-0.5,1.9-1.1,2.8-1.6c6.1-3.5,12.3-7,18.6-10.4c1.3-0.7,2.6-1.4,3.9-2.1c9.4-5,19.1-9.9,29.1-14.6c0.8-0.4,1.6-0.7,2.3-1.1
			c6.4-3,12.8-5.9,19.5-8.8c1-0.4,2-0.8,2.9-1.3c1.3-0.5,2.5-1.1,3.8-1.6c1.8-0.8,3.5-1.5,5.3-2.2c2.1-0.9,4.2-1.7,6.3-2.6
			c1.8-0.7,3.6-1.4,5.4-2.1c442.3-172.3,748.4,213.5,1069.7,61.7C2221.6,626.9,2378.1,466,2443.2,0H3724z"/>
		<linearGradient id="SVGID_5_" gradientUnits="userSpaceOnUse" x1="1635.4016" y1="344.2397" x2="1823.5076" y2="998.1321">
			<stop  offset="0" style="stop-color:#F7931E"/>
			<stop  offset="0.1581" style="stop-color:#F48C1F"/>
			<stop  offset="0.3809" style="stop-color:#EB7A21"/>
			<stop  offset="0.6419" style="stop-color:#DB5C26"/>
			<stop  offset="0.9299" style="stop-color:#C7322B"/>
			<stop  offset="1" style="stop-color:#C1272D"/>
		</linearGradient>
		<path class="st4" d="M2443.2,0c-65.1,466-221.6,626.9-351.6,688.3c-321.3,151.8-627.4-234.1-1069.7-61.7c-1.8,0.7-3.6,1.4-5.4,2.1
			c-2.1,0.9-4.2,1.7-6.3,2.6c-1.8,0.7-3.6,1.5-5.3,2.2c-1.3,0.5-2.5,1.1-3.8,1.6c-1,0.4-2,0.8-2.9,1.3c-6.6,2.9-13.1,5.8-19.5,8.8
			c-0.8,0.4-1.6,0.7-2.3,1.1c-10,4.7-19.7,9.6-29.1,14.6c-1.3,0.7-2.6,1.4-3.9,2.1c-6.3,3.4-12.5,6.9-18.6,10.4
			c-1,0.5-1.9,1.1-2.8,1.6c-1.9,1.1-3.7,2.2-5.6,3.3c-1.8,1.1-3.7,2.2-5.5,3.3c-1.6,1-3.2,2-4.8,2.9c-0.3,0.2-0.7,0.4-1.1,0.6
			c-3.5,2.2-6.9,4.3-10.3,6.5c-1.6,1-3.2,2-4.7,3l-1.1,0.7c-1.2,0.8-2.5,1.6-3.7,2.4c-2,1.3-4.1,2.7-6.1,4.1
			c-1.7,1.2-3.4,2.3-5.1,3.5c-5,3.4-10,6.8-14.8,10.3c-5.2,3.7-10.4,7.4-15.4,11.1c-1.4,1-2.7,2-4.1,3
			c268.2-269.9,475.8-331.4,634.9-308.9c208.2,29.4,384.6,209.8,555.4,123.4c115.3-58.3,151.8-199.5,185.1-336
			c12.8-52.5,26.6-122.6,33.8-208.3H2443.2z"/>
		<linearGradient id="SVGID_6_" gradientUnits="userSpaceOnUse" x1="1283.9862" y1="1342.1488" x2="1408.0531" y2="2061.7371">
			<stop  offset="0" style="stop-color:#F7931E"/>
			<stop  offset="1" style="stop-color:#C1272D"/>
		</linearGradient>
		<path class="st5" d="M2410.9,1439c-100.6-40.2-204.1-59.2-326.2-23.8c-263.7,76.5-290.1,312.8-548.6,329.1
			c-236.4,15-317-175.5-528-171.4c-130.5,2.6-314.4,79.6-534.1,527.1H304.5c42.3-224,130.4-398,312.8-520.2
			c54.9-36.8,233.5-156.4,452.6-130.3c222.6,26.5,256.5,175.9,440.1,178.2c205,2.5,269.3-182.5,465.1-246.8
			C2076.7,1347.5,2216.5,1345.9,2410.9,1439z"/>
	</g>
</g>
<g id="ornament">
	<defs>
		<rect id="SVGID_7_" width="3724" height="2100"/>
	</defs>
	<clipPath id="SVGID_8_">
		<use xlink:href="#SVGID_7_"  style="overflow:visible;"/>
	</clipPath>
	<g id="gradient_circle" class="st6">
		<g>
			<radialGradient id="SVGID_9_" cx="555.4686" cy="1181.7573" r="102.96" gradientUnits="userSpaceOnUse">
				<stop  offset="0" style="stop-color:#FF0000"/>
				<stop  offset="1" style="stop-color:#FFFFFF"/>
			</radialGradient>
			<circle class="st7" cx="555.5" cy="1181.8" r="103"/>
			<linearGradient id="SVGID_10_" gradientUnits="userSpaceOnUse" x1="496.5017" y1="1092.8297" x2="637.9302" y2="1334.5437">
				<stop  offset="0" style="stop-color:#F7931E"/>
				<stop  offset="1" style="stop-color:#C1272D"/>
			</linearGradient>
			<circle class="st8" cx="538.8" cy="1165" r="98"/>
		</g>
		<g>
			<radialGradient id="SVGID_11_" cx="2889.1011" cy="509.0617" r="276.1269" gradientUnits="userSpaceOnUse">
				<stop  offset="0" style="stop-color:#FF0000"/>
				<stop  offset="1" style="stop-color:#FFFFFF"/>
			</radialGradient>
			<circle class="st9" cx="2889.1" cy="509.1" r="276.1"/>
			<linearGradient id="SVGID_12_" gradientUnits="userSpaceOnUse" x1="2730.9587" y1="270.5679" x2="3110.2539" y2="918.817">
				<stop  offset="0" style="stop-color:#F7931E"/>
				<stop  offset="1" style="stop-color:#C1272D"/>
			</linearGradient>
			<circle class="st10" cx="2844.3" cy="464.2" r="262.9"/>
		</g>
		<g>
			<radialGradient id="SVGID_13_" cx="1871.3191" cy="1643.9015" r="162.7036" gradientUnits="userSpaceOnUse">
				<stop  offset="0" style="stop-color:#FF0000"/>
				<stop  offset="1" style="stop-color:#FFFFFF"/>
			</radialGradient>
			<circle class="st11" cx="1871.3" cy="1643.9" r="162.7"/>
			<linearGradient id="SVGID_14_" gradientUnits="userSpaceOnUse" x1="1778.136" y1="1503.3726" x2="2001.6299" y2="1885.3436">
				<stop  offset="0" style="stop-color:#F7931E"/>
				<stop  offset="1" style="stop-color:#C1272D"/>
			</linearGradient>
			<circle class="st12" cx="1844.9" cy="1617.5" r="154.9"/>
		</g>
		<g>
			<radialGradient id="SVGID_15_" cx="3420.0864" cy="2095.9612" r="189.7899" gradientUnits="userSpaceOnUse">
				<stop  offset="0" style="stop-color:#FF0000"/>
				<stop  offset="1" style="stop-color:#FFFFFF"/>
			</radialGradient>
			<circle class="st13" cx="3420.1" cy="2096" r="189.8"/>
			<linearGradient id="SVGID_16_" gradientUnits="userSpaceOnUse" x1="3311.3906" y1="1932.0376" x2="3572.0911" y2="2377.5979">
				<stop  offset="0" style="stop-color:#F7931E"/>
				<stop  offset="1" style="stop-color:#C1272D"/>
			</linearGradient>
			<circle class="st14" cx="3389.3" cy="2065.2" r="180.7"/>
		</g>
		<g>
			<radialGradient id="SVGID_17_" cx="1135.412" cy="80.3654" r="181.7861" gradientUnits="userSpaceOnUse">
				<stop  offset="0" style="stop-color:#FF0000"/>
				<stop  offset="1" style="stop-color:#FFFFFF"/>
			</radialGradient>
			<circle class="st15" cx="1135.4" cy="80.4" r="181.8"/>
			<linearGradient id="SVGID_18_" gradientUnits="userSpaceOnUse" x1="1031.3002" y1="-76.6452" x2="1281.0062" y2="350.1248">
				<stop  offset="0" style="stop-color:#F7931E"/>
				<stop  offset="1" style="stop-color:#C1272D"/>
			</linearGradient>
			<circle class="st16" cx="1105.9" cy="50.9" r="173.1"/>
		</g>
	</g>
	<g id="lines" class="st6">
		<g class="st17">
			<linearGradient id="SVGID_19_" gradientUnits="userSpaceOnUse" x1="1959.7858" y1="525.7404" x2="2382.3423" y2="525.7404">
				<stop  offset="0" style="stop-color:#FFFFFF"/>
				<stop  offset="1" style="stop-color:#000000"/>
			</linearGradient>
			<path class="st18" d="M2380.9,316.1l-209,210.5c-34.8,35.1-69.6,70.3-104.7,105.1c-35.2,34.8-70.3,69.6-105.8,103.9
				c-0.1,0.1-0.2,0.1-0.2,0c-0.1-0.1-0.1-0.2,0-0.2c34.4-35.6,69.2-70.7,103.9-105.8c34.8-35.1,70-69.8,105.1-104.7l210.5-209
				c0.1-0.1,0.2-0.1,0.2,0C2381,315.9,2381,316,2380.9,316.1z"/>
		</g>
		<g class="st17">
			<linearGradient id="SVGID_20_" gradientUnits="userSpaceOnUse" x1="364.2981" y1="760.8629" x2="786.8549" y2="760.8629">
				<stop  offset="0" style="stop-color:#FFFFFF"/>
				<stop  offset="1" style="stop-color:#000000"/>
			</linearGradient>
			<path class="st19" d="M785.5,551.2l-209,210.5c-34.8,35.1-69.6,70.3-104.7,105.1c-35.2,34.8-70.3,69.6-105.8,103.9
				c-0.1,0.1-0.2,0.1-0.2,0c-0.1-0.1-0.1-0.2,0-0.2c34.4-35.6,69.2-70.7,103.9-105.8c34.8-35.1,70-69.8,105.1-104.7l210.5-209
				c0.1-0.1,0.2-0.1,0.2,0C785.5,551,785.5,551.1,785.5,551.2z"/>
		</g>
		<g class="st17">
			<linearGradient id="SVGID_21_" gradientUnits="userSpaceOnUse" x1="758.5162" y1="1926.5093" x2="1181.073" y2="1926.5093">
				<stop  offset="0" style="stop-color:#FFFFFF"/>
				<stop  offset="1" style="stop-color:#000000"/>
			</linearGradient>
			<path class="st20" d="M1179.7,1716.8l-209,210.5c-34.8,35.1-69.6,70.3-104.7,105.1c-35.2,34.8-70.3,69.6-105.8,103.9
				c-0.1,0.1-0.2,0.1-0.2,0c-0.1-0.1-0.1-0.2,0-0.2c34.4-35.6,69.2-70.7,103.9-105.8c34.8-35.1,70-69.8,105.1-104.7l210.5-209
				c0.1-0.1,0.2-0.1,0.2,0C1179.7,1716.7,1179.7,1716.8,1179.7,1716.8z"/>
		</g>
		<g class="st17">
			<linearGradient id="SVGID_22_" gradientUnits="userSpaceOnUse" x1="2387.7224" y1="1288.2208" x2="2810.2793" y2="1288.2208">
				<stop  offset="0" style="stop-color:#FFFFFF"/>
				<stop  offset="1" style="stop-color:#000000"/>
			</linearGradient>
			<path class="st21" d="M2808.9,1078.6l-209,210.5c-34.8,35.1-69.6,70.3-104.7,105.1c-35.2,34.8-70.3,69.6-105.8,103.9
				c-0.1,0.1-0.2,0.1-0.2,0c-0.1-0.1-0.1-0.2,0-0.2c34.4-35.6,69.2-70.7,103.9-105.8c34.8-35.1,70-69.8,105.1-104.7l210.5-209
				c0.1-0.1,0.2-0.1,0.2,0C2808.9,1078.4,2808.9,1078.5,2808.9,1078.6z"/>
		</g>
		<g class="st17">
			<linearGradient id="SVGID_23_" gradientUnits="userSpaceOnUse" x1="3229.7705" y1="102.8564" x2="3652.3274" y2="102.8564">
				<stop  offset="0" style="stop-color:#FFFFFF"/>
				<stop  offset="1" style="stop-color:#000000"/>
			</linearGradient>
			<path class="st22" d="M3650.9-106.8l-209,210.5c-34.8,35.1-69.6,70.3-104.7,105.1c-35.2,34.8-70.3,69.6-105.8,103.9
				c-0.1,0.1-0.2,0.1-0.2,0c-0.1-0.1-0.1-0.2,0-0.2c34.4-35.6,69.2-70.7,103.9-105.8c34.8-35.1,70-69.8,105.1-104.7l210.5-209
				c0.1-0.1,0.2-0.1,0.2,0C3651-107,3651-106.9,3650.9-106.8z"/>
		</g>
		<g class="st17">
			<linearGradient id="SVGID_24_" gradientUnits="userSpaceOnUse" x1="1189.1538" y1="640.468" x2="1405.5254" y2="640.468">
				<stop  offset="0" style="stop-color:#FFFFFF"/>
				<stop  offset="1" style="stop-color:#000000"/>
			</linearGradient>
			<path class="st23" d="M1297.3,748.7c-59.7,0-108.2-48.5-108.2-108.2c0-59.7,48.5-108.2,108.2-108.2s108.2,48.5,108.2,108.2
				C1405.5,700.1,1357,748.7,1297.3,748.7z M1297.3,537.3c-56.9,0-103.2,46.3-103.2,103.2c0,56.9,46.3,103.2,103.2,103.2
				c56.9,0,103.2-46.3,103.2-103.2C1400.5,583.6,1354.2,537.3,1297.3,537.3z"/>
		</g>
		<g class="st17">
			<linearGradient id="SVGID_25_" gradientUnits="userSpaceOnUse" x1="3133.8975" y1="915.0894" x2="3269.1816" y2="915.0894">
				<stop  offset="0" style="stop-color:#FFFFFF"/>
				<stop  offset="1" style="stop-color:#000000"/>
			</linearGradient>
			<path class="st24" d="M3201.5,982.7c-37.3,0-67.6-30.3-67.6-67.6c0-37.3,30.3-67.6,67.6-67.6s67.6,30.3,67.6,67.6
				C3269.2,952.4,3238.8,982.7,3201.5,982.7z M3201.5,850.6c-35.6,0-64.5,28.9-64.5,64.5c0,35.6,28.9,64.5,64.5,64.5
				c35.6,0,64.5-28.9,64.5-64.5C3266.1,879.5,3237.1,850.6,3201.5,850.6z"/>
		</g>
		<g class="st17">
			<linearGradient id="SVGID_26_" gradientUnits="userSpaceOnUse" x1="2496.2031" y1="-18.1203" x2="2745.8848" y2="-18.1203">
				<stop  offset="0" style="stop-color:#FFFFFF"/>
				<stop  offset="1" style="stop-color:#000000"/>
			</linearGradient>
			<path class="st25" d="M2621,106.7c-68.8,0-124.8-56-124.8-124.8S2552.2-143,2621-143s124.8,56,124.8,124.8
				S2689.9,106.7,2621,106.7z M2621-137.2c-65.7,0-119.1,53.4-119.1,119.1c0,65.7,53.4,119.1,119.1,119.1s119.1-53.4,119.1-119.1
				C2740.1-83.8,2686.7-137.2,2621-137.2z"/>
		</g>
		<g class="st17">
			<linearGradient id="SVGID_27_" gradientUnits="userSpaceOnUse" x1="506.5474" y1="1772.5205" x2="721.2212" y2="1772.5205">
				<stop  offset="0" style="stop-color:#FFFFFF"/>
				<stop  offset="1" style="stop-color:#000000"/>
			</linearGradient>
			<path class="st26" d="M613.9,1879.9c-59.2,0-107.3-48.2-107.3-107.3s48.2-107.3,107.3-107.3c59.2,0,107.3,48.2,107.3,107.3
				S673.1,1879.9,613.9,1879.9z M613.9,1670.1c-56.5,0-102.4,45.9-102.4,102.4s45.9,102.4,102.4,102.4s102.4-45.9,102.4-102.4
				S670.3,1670.1,613.9,1670.1z"/>
		</g>
		<g class="st17">
			<linearGradient id="SVGID_28_" gradientUnits="userSpaceOnUse" x1="-75.8984" y1="1329.875" x2="75.8984" y2="1329.875">
				<stop  offset="0" style="stop-color:#FFFFFF"/>
				<stop  offset="1" style="stop-color:#000000"/>
			</linearGradient>
			<path class="st27" d="M0,1405.8c-41.9,0-75.9-34-75.9-75.9s34-75.9,75.9-75.9s75.9,34,75.9,75.9S41.9,1405.8,0,1405.8z M0,1257.5
				c-39.9,0-72.4,32.5-72.4,72.4s32.5,72.4,72.4,72.4s72.4-32.5,72.4-72.4S39.9,1257.5,0,1257.5z"/>
		</g>
		<g class="st17">
			<linearGradient id="SVGID_29_" gradientUnits="userSpaceOnUse" x1="3647.501" y1="464.2358" x2="3800.499" y2="464.2358">
				<stop  offset="0" style="stop-color:#FFFFFF"/>
				<stop  offset="1" style="stop-color:#000000"/>
			</linearGradient>
			<path class="st28" d="M3724,540.7c-42.2,0-76.5-34.3-76.5-76.5c0-42.2,34.3-76.5,76.5-76.5s76.5,34.3,76.5,76.5
				C3800.5,506.4,3766.2,540.7,3724,540.7z M3724,391.3c-40.2,0-73,32.7-73,73c0,40.2,32.7,73,73,73s73-32.7,73-73
				C3797,424,3764.2,391.3,3724,391.3z"/>
		</g>
	</g>
</g>
<g id="text">
</g>
</svg>
