<?xml version="1.0" encoding="utf-8"?>
<!-- Generator: Adobe Illustrator 24.1.3, SVG Export Plug-In . SVG Version: 6.00 Build 0)  -->
<svg version="1.1" id="Layer_1" xmlns="http://www.w3.org/2000/svg" xmlns:xlink="http://www.w3.org/1999/xlink" x="0px" y="0px"
	 viewBox="0 0 500 184" style="enable-background:new 0 0 500 184;" xml:space="preserve">
<style type="text/css">
	.st0{fill:#0060B1;}
	.st1{opacity:0.46;}
	.st2{fill:#FF6500;stroke:#FF6500;stroke-width:2;stroke-miterlimit:10;}
	.st3{fill:#FFFFFF;stroke:#0060B1;stroke-width:2;stroke-miterlimit:10;}
	.st4{opacity:0.22;}
	.st5{fill:#FF6500;}
</style>
<g>
	<g>
		<g>
			
				<ellipse transform="matrix(0.6117 -0.7911 0.7911 0.6117 9.7526 166.854)" class="st0" cx="174.8" cy="73.5" rx="7.1" ry="10.9"/>
			<polygon class="st0" points="142.6,8.3 148.9,13.1 181.9,72.5 178.3,77.2 173.8,70 175.6,67.6 			"/>
		</g>
		<ellipse class="st1" cx="145.5" cy="166.6" rx="53" ry="8.9"/>
		<ellipse class="st2" cx="121.8" cy="103.3" rx="65.9" ry="63.4"/>
		<g>
			<path class="st3" d="M96.4,105.8c-1.3-20.8,38.2-20.6,54.7-30.2c1.9-1.1,8.5-4.2,10.6-4.6c6-1.3,21,16.3,18.9,30.3
				c-1.4,9.3-9.2,15.1-21.8,23.8c-18.3,12.5-32.5,15.6-48.4,14.6C97.9,138.9,97.2,117.5,96.4,105.8z"/>
			<path d="M123.2,114.2h7.9c-1,5.4-4.6,9.9-8.9,9.9c-4.3,0-7.9-4.5-7.9-9.9c0-5.4,3.6-9.9,7.9-9.9c3.7,0,7,3.3,7.8,7.9L123.2,114.2
				z"/>
			<path d="M160.9,96.3h7.9c0,5.4-3.6,9.9-7.9,9.9c-4.3,0-7.9-4.5-7.9-9.9c0-5.4,3.6-9.9,7.9-9.9c3.7,0,7,3.3,7.8,7.9L160.9,96.3z"
				/>
		</g>
		<path class="st0" d="M78.7,59.7c7.1,2.7,20.3,6,24.8,14.9c0.5,1,2.6,4.5,2.8,5c1.4,3,36-11.7,40.8-14.2c0.8-0.4,3.5-1.2,3.9-2.7
			c1.5-5.3-12.7-18.9-24.3-22.2C104.8,34.4,70.3,56.6,78.7,59.7z"/>
		<path class="st4" d="M66.9,70.6c2.4,1.7-2,13.9,0.4,26.7c0.1,0.3,0.3,1.6,1,3.7c2.7,8.9,7.4,24.8,19,35.6
			c13.3,12.4,33.4,16.3,49.4,13.1c21.3-4.2,39.2-21.4,42-18.8c2.1,1.9-5.3,10.3-12.9,17.8c-17.8,17.5-43.4,17.5-50.5,16.8
			c-8.1-0.8-19.8-3.5-31.3-11.9c-13.4-9.6-21.2-21.4-23.1-26.7c-3-8.8-4.8-16.9-4-33.5c0.3-6.1,0.9-12.5,5.7-16.9
			C64.5,74.8,65.5,69.6,66.9,70.6z"/>
		<g>
			<ellipse class="st3" cx="73.7" cy="117.7" rx="13.9" ry="21.2"/>
			<ellipse cx="72.9" cy="118.1" rx="7.1" ry="10.9"/>
			<polygon class="st0" points="41,52.8 41,60.7 67.8,123.1 73.7,123.1 70.8,115.2 67.8,115.2 			"/>
		</g>
	</g>
	<g>
		<g>
			<path class="st0" d="M210.9,118.2c-1.3-0.3-2.5-0.7-3.6-1.2s-2.2-1.2-3-1.9l2.5-4.4c1.1,0.9,2.4,1.6,3.8,2.1
				c1.4,0.5,2.9,0.7,4.4,0.7c1.7,0,3.1-0.3,4.1-0.9s1.4-1.4,1.4-2.5v0c0-0.8-0.2-1.4-0.6-1.8c-0.4-0.4-1-0.8-1.7-1
				c-0.7-0.2-1.6-0.4-2.6-0.6c0,0-0.1,0-0.1,0c0,0-0.1,0-0.1,0l-0.4-0.1c-1.9-0.3-3.5-0.7-4.7-1.1c-1.2-0.4-2.3-1.2-3.2-2.4
				c-0.9-1.1-1.3-2.7-1.3-4.8v0c0-1.8,0.4-3.4,1.2-4.7c0.8-1.3,2-2.3,3.6-3s3.4-1,5.7-1c1,0,2,0.1,3.1,0.4s2.1,0.6,3.1,1
				c1,0.4,2,1,2.9,1.6l-2.3,4.5c-1.1-0.8-2.2-1.3-3.4-1.8c-1.2-0.4-2.3-0.6-3.4-0.6c-1.6,0-2.9,0.3-3.8,0.8
				c-0.9,0.5-1.3,1.3-1.3,2.3v0c0,0.8,0.2,1.5,0.7,1.9c0.5,0.5,1,0.8,1.7,1c0.7,0.2,1.7,0.5,2.9,0.7c0.1,0,0.1,0,0.2,0
				c0.1,0,0.1,0,0.2,0c0.1,0,0.2,0,0.2,0c0.1,0,0.1,0,0.2,0c1.8,0.4,3.3,0.8,4.5,1.3c1.2,0.5,2.2,1.3,3,2.4c0.8,1.1,1.2,2.6,1.2,4.6
				v0c0,1.8-0.4,3.4-1.3,4.6c-0.8,1.3-2.1,2.3-3.7,2.9s-3.6,1-5.8,1C213.5,118.6,212.1,118.5,210.9,118.2z"/>
			<path class="st0" d="M235.4,110.4c0,1,0.3,1.7,0.8,2.3c0.6,0.5,1.3,0.8,2.3,0.8c1,0,1.8-0.3,2.3-0.8c0.5-0.6,0.8-1.3,0.8-2.4
				l0.3,4.4c-0.4,1.1-1,2-1.9,2.8c-0.9,0.8-1.9,1.1-3.2,1.1c-2.2,0-3.8-0.7-5-2.1c-1.2-1.4-1.8-3.4-1.8-5.9V98.1h5.3V110.4z
				 M241.7,98.1h5.3v20.2h-5.3V98.1z"/>
			<path class="st0" d="M252.3,98.1h5.3v28.5h-5.3V98.1z M259.3,117.7c-0.9-0.6-1.5-1.5-1.9-2.6l0.3-4.6c0,0.7,0.1,1.2,0.4,1.7
				c0.2,0.5,0.6,0.8,1,1.1c0.4,0.2,1,0.4,1.6,0.4c1,0,1.8-0.3,2.3-1c0.6-0.7,0.8-1.6,0.8-2.8v-3.2c0-1.2-0.3-2.2-0.8-2.9
				c-0.6-0.7-1.3-1-2.3-1c-0.6,0-1.2,0.1-1.6,0.4s-0.8,0.6-1,1.1c-0.2,0.5-0.4,1.1-0.4,1.8l-0.4-4.5c0.5-1.2,1.3-2.1,2.2-2.7
				c0.9-0.6,1.9-1,3-1c1.4,0,2.7,0.3,3.7,1c1,0.7,1.8,1.7,2.3,3c0.5,1.3,0.8,2.9,0.8,4.8v3.2c0,1.8-0.3,3.4-0.8,4.7
				c-0.5,1.3-1.3,2.3-2.3,3c-1,0.7-2.2,1-3.7,1C261.1,118.6,260.1,118.3,259.3,117.7z"/>
			<path class="st0" d="M277.7,117.6c-1.4-0.7-2.4-1.7-3.2-3.1c-0.7-1.4-1.1-3-1.1-4.9v-2.3c0-2,0.3-3.7,1-5.1
				c0.7-1.4,1.7-2.5,3-3.2c1.3-0.7,2.9-1.1,4.8-1.1c1.8,0,3.3,0.4,4.5,1.3c1.3,0.9,2.2,2.2,2.9,3.8s1,3.7,1,6.1v1.3h-13.8v-3.6h9
				l-0.1-0.5c-0.1-1.2-0.5-2.1-1.1-2.7c-0.6-0.6-1.4-1-2.4-1c-1.3,0-2.3,0.4-3,1.1c-0.7,0.8-1.1,1.9-1.1,3.3v2.6
				c0,1.4,0.4,2.4,1.2,3.2c0.8,0.8,1.9,1.1,3.2,1.1c0.7,0,1.4-0.1,2.1-0.4c0.7-0.3,1.3-0.6,1.9-1.1l3.5,3.1c-1.1,1-2.2,1.7-3.5,2.2
				s-2.6,0.8-4,0.8C280.7,118.6,279.1,118.3,277.7,117.6z"/>
			<path class="st0" d="M295.4,98.1h5.7v20.2h-5.7V98.1z M305.8,103.2c-0.4-0.1-0.8-0.2-1.3-0.2c-1.1,0-1.9,0.3-2.5,1
				c-0.6,0.7-0.9,1.7-0.9,2.9l-0.4-5.3c0.6-1.2,1.3-2.1,2.2-2.8c0.9-0.7,1.9-1,2.9-1c0.8,0,1.6,0.1,2.3,0.4c0.7,0.3,1.3,0.7,1.8,1.2
				l-3.1,4.3C306.5,103.5,306.2,103.3,305.8,103.2z"/>
			<path class="st5" d="M319.6,90h20.8v5.1h-20.8V90z M327.4,92.3h5.3v26h-5.3V92.3z"/>
			<path class="st5" d="M342.4,98.1h5.7v20.2h-5.7V98.1z M352.8,103.2c-0.4-0.1-0.8-0.2-1.3-0.2c-1.1,0-1.9,0.3-2.5,1
				c-0.6,0.7-0.9,1.7-0.9,2.9l-0.4-5.3c0.6-1.2,1.3-2.1,2.2-2.8c0.9-0.7,1.9-1,2.9-1c0.8,0,1.6,0.1,2.3,0.4c0.7,0.3,1.3,0.7,1.8,1.2
				l-3.1,4.3C353.5,103.5,353.2,103.3,352.8,103.2z"/>
			<path class="st5" d="M360,117.1c-1.1-1-1.6-2.6-1.6-4.7c0-2,0.6-3.5,1.8-4.5c1.2-1,3-1.5,5.4-1.5h5.1l0.3,4.1h-5.3
				c-0.8,0-1.4,0.2-1.8,0.5c-0.4,0.3-0.6,0.8-0.6,1.5c0,0.7,0.3,1.2,0.8,1.5c0.5,0.3,1.3,0.5,2.3,0.5c1.4,0,2.5-0.2,3.2-0.5
				c0.7-0.3,1-0.8,1-1.5l0.4,2.9c-0.1,0.7-0.4,1.3-1,1.9s-1.3,0.9-2.2,1.1c-0.9,0.3-1.8,0.4-2.8,0.4
				C362.7,118.6,361.1,118.1,360,117.1z M370.5,105.5c0-0.9-0.3-1.7-0.9-2.2c-0.6-0.5-1.5-0.8-2.7-0.8c-0.8,0-1.5,0.1-2.2,0.4
				c-0.7,0.2-1.4,0.6-2,1l-3.3-3.3c0.8-0.9,1.9-1.6,3.2-2.2s2.8-0.8,4.4-0.8c1.8,0,3.3,0.3,4.5,0.9c1.2,0.6,2.2,1.4,2.9,2.6
				c0.7,1.1,1,2.5,1,4.1v13h-4.9V105.5z"/>
			<path class="st5" d="M380.6,98.1h5.3v20.2h-5.3V98.1z M392.4,106.7c0-1.2-0.3-2.1-0.9-2.7c-0.6-0.6-1.4-1-2.5-1
				c-1,0-1.8,0.3-2.3,0.8c-0.5,0.6-0.8,1.3-0.8,2.3l-0.4-4.5c0.6-1.2,1.3-2.2,2.2-2.8c0.9-0.6,1.9-1,3.2-1c1.4,0,2.7,0.3,3.7,1
				c1,0.7,1.8,1.7,2.3,3c0.5,1.3,0.8,2.9,0.8,4.8v11.7h-5.3V106.7z M404.2,106.7c0-1.2-0.3-2.1-0.8-2.7c-0.6-0.6-1.4-1-2.4-1
				c-1,0-1.8,0.3-2.4,0.9c-0.6,0.6-0.8,1.5-0.8,2.6l-1-4.7c0.6-1.3,1.5-2.3,2.5-3c1-0.7,2.2-1,3.4-1c1.5,0,2.7,0.3,3.7,1
				s1.8,1.7,2.4,3c0.5,1.3,0.8,2.9,0.8,4.8v11.7h-5.3V106.7z"/>
			<path class="st5" d="M414.8,98.1h5.3v28.5h-5.3V98.1z M421.8,117.7c-0.9-0.6-1.5-1.5-1.9-2.6l0.3-4.6c0,0.7,0.1,1.2,0.4,1.7
				c0.2,0.5,0.6,0.8,1,1.1c0.4,0.2,1,0.4,1.6,0.4c1,0,1.8-0.3,2.3-1c0.6-0.7,0.8-1.6,0.8-2.8v-3.2c0-1.2-0.3-2.2-0.8-2.9
				c-0.6-0.7-1.3-1-2.3-1c-0.6,0-1.2,0.1-1.6,0.4s-0.8,0.6-1,1.1c-0.2,0.5-0.4,1.1-0.4,1.8l-0.4-4.5c0.5-1.2,1.3-2.1,2.2-2.7
				c0.9-0.6,1.9-1,3-1c1.4,0,2.7,0.3,3.7,1c1,0.7,1.8,1.7,2.3,3c0.5,1.3,0.8,2.9,0.8,4.8v3.2c0,1.8-0.3,3.4-0.8,4.7
				c-0.5,1.3-1.3,2.3-2.3,3c-1,0.7-2.2,1-3.7,1C423.7,118.6,422.7,118.3,421.8,117.7z"/>
			<path class="st5" d="M440,117.6c-1.3-0.7-2.3-1.7-3-3c-0.7-1.3-1-2.9-1-4.8v-3.3c0-1.8,0.3-3.4,1-4.7c0.7-1.3,1.7-2.3,3-3
				s2.9-1,4.7-1c1.8,0,3.4,0.3,4.7,1s2.3,1.7,3,3c0.7,1.3,1,2.9,1,4.7v3.4c0,1.8-0.3,3.4-1,4.7c-0.7,1.3-1.7,2.3-3,3
				c-1.3,0.7-2.9,1-4.7,1C442.8,118.6,441.3,118.3,440,117.6z M447.2,112.6c0.6-0.6,0.9-1.5,0.9-2.7v-3.4c0-1.1-0.3-2-0.9-2.6
				s-1.4-0.9-2.5-0.9c-1.1,0-1.9,0.3-2.5,0.9s-0.9,1.5-0.9,2.6v3.4c0,1.1,0.3,2,0.9,2.7c0.6,0.6,1.4,0.9,2.5,0.9
				C445.7,113.5,446.6,113.2,447.2,112.6z"/>
		</g>
	</g>
</g>
</svg>
