<?xml version="1.0" encoding="utf-8"?>
<!-- Generator: Adobe Illustrator 24.1.3, SVG Export Plug-In . SVG Version: 6.00 Build 0)  -->
<svg version="1.1" id="Layer_1" xmlns="http://www.w3.org/2000/svg" xmlns:xlink="http://www.w3.org/1999/xlink" x="0px" y="0px"
	 viewBox="0 0 419 173" style="enable-background:new 0 0 419 173;" xml:space="preserve">
<style type="text/css">
	.st0{fill:#170050;}
	.st1{opacity:0.46;}
	.st2{fill:#710049;stroke:#55004B;stroke-width:2;stroke-miterlimit:10;}
	.st3{fill:#FFFFFF;stroke:#55004B;stroke-width:2;stroke-miterlimit:10;}
	.st4{opacity:0.22;}
	.st5{fill:#55004B;}
	.st6{fill:#FFFFFF;}
	.st7{fill:#710049;}
</style>
<g>
	<g>
		
			<ellipse transform="matrix(0.6117 -0.7911 0.7911 0.6117 -773.8186 -71.2301)" class="st0" cx="-459.5" cy="752.6" rx="29.9" ry="45.7"/>
		<polygon class="st0" points="-594.6,479 -568.3,499.3 -429.8,748.3 -445.1,768 -463.8,737.8 -456.1,727.9 		"/>
	</g>
	<ellipse class="st1" cx="-582.5" cy="1143.6" rx="222.4" ry="37.4"/>
	<ellipse class="st2" cx="-682.3" cy="877.6" rx="276.4" ry="266"/>
	<g>
		<path class="st3" d="M-788.5,888.4c-5.4-87.1,160.4-86.7,229.5-126.7c8-4.7,35.8-17.5,44.6-19.4c25.2-5.5,88.1,68.4,79.5,127.1
			c-5.8,38.9-38.6,63.5-91.4,99.7c-76.8,52.6-136.4,65.6-203.2,61.5C-782.4,1027.2-785.4,937.3-788.5,888.4z"/>
		<path d="M-676,923.3h33.2c-4.2,22.8-19.2,41.6-37.4,41.6s-33.2-18.8-33.2-41.6c0-22.8,15-41.6,33.2-41.6
			c15.7,0,29.4,13.9,32.6,33.2L-676,923.3z"/>
		<path d="M-518.1,848.5h33.2c0,22.8-15,41.6-33.2,41.6c-18.2,0-33.2-18.8-33.2-41.6c0-22.8,15-41.6,33.2-41.6
			c15.7,0,29.4,13.9,32.6,33.2L-518.1,848.5z"/>
	</g>
	<path class="st0" d="M-863.1,694.7c29.8,11.2,85.3,25.1,103.9,62.3c2,4,11,19.1,11.8,21c5.7,12.8,151.1-49,171.4-59.6
		c3.5-1.8,14.6-5.1,16.3-11.2c6.3-22.2-53.3-79.5-102-93.1C-753.4,588.6-898.1,681.6-863.1,694.7z"/>
	<path class="st4" d="M-912.4,740.4c10.3,7.3-8.4,58.1,1.6,111.9c0.2,1.3,1.3,6.6,4,15.7c11.2,37.2,31.2,104,79.8,149.5
		c55.7,52.2,140.4,68.3,207.4,55.1c89.3-17.6,164.5-89.8,176.3-78.7c8.7,8.2-22,43.4-54,74.8c-74.6,73.3-182,73.6-212,70.7
		c-34.1-3.4-82.9-14.8-131.5-49.9c-56-40.5-89.1-89.8-96.9-112.2c-12.7-36.8-20.2-70.8-17-140.7c1.2-25.8,3.8-52.6,23.9-70.8
		C-922.4,758.3-918.2,736.3-912.4,740.4z"/>
	<g>
		<ellipse class="st3" cx="-883.8" cy="938.2" rx="58.2" ry="89"/>
		<ellipse class="st5" cx="-887.2" cy="939.9" rx="29.9" ry="45.7"/>
		<polygon class="st0" points="-1021,665.6 -1021,698.9 -908.8,960.7 -883.8,960.7 -896.3,927.5 -908.8,927.5 		"/>
	</g>
</g>
<g>
	<g>
		<ellipse transform="matrix(0.6117 -0.7911 0.7911 0.6117 -0.1127 135.6354)" class="st0" cx="138.1" cy="67.9" rx="7.2" ry="11"/>
		<polygon class="st0" points="105.6,2.1 111.9,7 145.2,66.9 141.6,71.6 137.1,64.4 138.9,62 		"/>
	</g>
	<ellipse class="st1" cx="108.5" cy="162" rx="53.5" ry="9"/>
	<ellipse class="st2" cx="84.5" cy="98" rx="66.5" ry="64"/>
	<g>
		<path class="st3" d="M58.9,100.6c-1.3-21,38.6-20.9,55.2-30.5c1.9-1.1,8.6-4.2,10.7-4.7c6.1-1.3,21.2,16.5,19.1,30.6
			c-1.4,9.4-9.3,15.3-22,24c-18.5,12.7-32.8,15.8-48.9,14.8C60.4,134,59.7,112.4,58.9,100.6z"/>
		<path d="M86,109h8c-1,5.5-4.6,10-9,10s-8-4.5-8-10s3.6-10,8-10c3.8,0,7.1,3.4,7.8,8L86,109z"/>
		<path d="M124,91h8c0,5.5-3.6,10-8,10s-8-4.5-8-10s3.6-10,8-10c3.8,0,7.1,3.4,7.8,8L124,91z"/>
	</g>
	<path class="st0" d="M41,54c7.2,2.7,20.5,6,25,15c0.5,1,2.6,4.6,2.8,5c1.4,3.1,36.4-11.8,41.2-14.3c0.8-0.4,3.5-1.2,3.9-2.7
		c1.5-5.3-12.8-19.1-24.5-22.4C67.4,28.5,32.6,50.8,41,54z"/>
	<path class="st4" d="M29.1,65c2.5,1.7-2,14,0.4,26.9c0.1,0.3,0.3,1.6,1,3.8c2.7,8.9,7.5,25,19.2,36c13.4,12.5,33.8,16.4,49.9,13.3
		c21.5-4.2,39.6-21.6,42.4-18.9c2.1,2-5.3,10.4-13,18c-18,17.6-43.8,17.7-51,17c-8.2-0.8-19.9-3.6-31.6-12
		c-13.5-9.7-21.4-21.6-23.3-27c-3.1-8.9-4.8-17-4.1-33.9c0.3-6.2,0.9-12.7,5.8-17C26.7,69.3,27.7,64,29.1,65z"/>
	<g>
		<ellipse class="st3" cx="36" cy="112.6" rx="14" ry="21.4"/>
		<ellipse class="st5" cx="35.2" cy="113" rx="7.2" ry="11"/>
		<polygon class="st0" points="3,47 3,55 30,118 36,118 33,110 30,110 		"/>
	</g>
</g>
<g>
	<path class="st6" d="M174.5,106.1c-1.3-0.3-2.5-0.7-3.7-1.2c-1.1-0.5-2.2-1.2-3.1-1.9l2.5-4.4c1.1,0.9,2.4,1.6,3.8,2.1
		c1.4,0.5,2.9,0.7,4.4,0.7c1.8,0,3.1-0.3,4.1-0.9c1-0.6,1.5-1.4,1.5-2.5v0c0-0.8-0.2-1.4-0.6-1.8c-0.4-0.4-1-0.8-1.7-1
		c-0.7-0.2-1.6-0.4-2.7-0.6c0,0-0.1,0-0.1,0c0,0-0.1,0-0.1,0l-0.4-0.1c-1.9-0.3-3.5-0.7-4.8-1.1c-1.3-0.5-2.3-1.2-3.2-2.4
		s-1.3-2.7-1.3-4.8v0c0-1.9,0.4-3.4,1.2-4.7c0.8-1.3,2-2.3,3.6-3c1.6-0.7,3.5-1,5.7-1c1,0,2.1,0.1,3.1,0.4s2.1,0.6,3.1,1
		c1,0.4,2,1,2.9,1.6l-2.3,4.6c-1.1-0.8-2.3-1.4-3.5-1.8c-1.2-0.4-2.4-0.6-3.5-0.6c-1.7,0-2.9,0.3-3.8,0.8c-0.9,0.5-1.4,1.3-1.4,2.3
		v0c0,0.8,0.2,1.5,0.7,2c0.5,0.5,1.1,0.8,1.8,1.1c0.7,0.2,1.7,0.5,2.9,0.7c0.1,0,0.1,0,0.2,0c0.1,0,0.1,0,0.2,0c0.1,0,0.2,0,0.2,0
		c0.1,0,0.1,0,0.2,0c1.8,0.4,3.3,0.8,4.5,1.3s2.2,1.3,3,2.4c0.8,1.1,1.2,2.7,1.2,4.6v0c0,1.8-0.4,3.4-1.3,4.7
		c-0.9,1.3-2.1,2.3-3.7,3c-1.6,0.7-3.6,1-5.9,1C177.1,106.5,175.8,106.4,174.5,106.1z"/>
	<path class="st6" d="M199.3,98.2c0,1,0.3,1.7,0.8,2.3s1.3,0.8,2.4,0.8c1,0,1.8-0.3,2.3-0.8c0.5-0.6,0.8-1.4,0.8-2.4l0.3,4.5
		c-0.4,1.1-1,2.1-1.9,2.8c-0.9,0.8-2,1.1-3.2,1.1c-2.2,0-3.9-0.7-5.1-2.1c-1.2-1.4-1.8-3.4-1.8-6V85.8h5.4V98.2z M205.6,85.8h5.4
		v20.4h-5.4V85.8z"/>
	<path class="st6" d="M216.3,85.8h5.4v28.7h-5.4V85.8z M223.4,105.6c-0.9-0.6-1.5-1.5-1.9-2.6l0.3-4.7c0,0.7,0.1,1.2,0.4,1.7
		c0.2,0.5,0.6,0.8,1,1.1c0.5,0.2,1,0.4,1.6,0.4c1,0,1.8-0.3,2.4-1s0.8-1.6,0.8-2.8v-3.2c0-1.2-0.3-2.2-0.8-2.9s-1.3-1-2.4-1
		c-0.6,0-1.2,0.1-1.6,0.4c-0.5,0.3-0.8,0.6-1,1.1c-0.2,0.5-0.4,1.1-0.4,1.8l-0.4-4.5c0.6-1.2,1.3-2.1,2.2-2.8s1.9-1,3-1
		c1.4,0,2.7,0.3,3.7,1c1,0.7,1.8,1.7,2.4,3.1s0.8,2.9,0.8,4.8v3.3c0,1.9-0.3,3.5-0.8,4.8s-1.3,2.3-2.4,3c-1,0.7-2.3,1-3.7,1
		C225.3,106.5,224.2,106.2,223.4,105.6z"/>
	<path class="st6" d="M242,105.5c-1.4-0.7-2.5-1.8-3.2-3.1s-1.1-3-1.1-4.9v-2.3c0-2,0.4-3.7,1.1-5.2c0.7-1.4,1.7-2.5,3.1-3.3
		c1.3-0.7,3-1.1,4.9-1.1c1.8,0,3.3,0.4,4.6,1.3c1.3,0.9,2.2,2.2,2.9,3.9c0.7,1.7,1,3.8,1,6.2v1.3h-14v-3.6h9.1l-0.1-0.5
		c-0.1-1.2-0.5-2.1-1.1-2.7c-0.6-0.6-1.4-1-2.4-1c-1.3,0-2.3,0.4-3,1.2c-0.7,0.8-1.1,1.9-1.1,3.3v2.6c0,1.4,0.4,2.5,1.2,3.2
		c0.8,0.8,1.9,1.1,3.3,1.1c0.7,0,1.4-0.1,2.1-0.4c0.7-0.3,1.4-0.6,1.9-1.1l3.5,3.1c-1.1,1-2.3,1.7-3.6,2.3c-1.3,0.5-2.7,0.8-4,0.8
		C245,106.5,243.3,106.2,242,105.5z"/>
	<path class="st6" d="M259.8,85.8h5.8v20.4h-5.8V85.8z M270.4,90.9c-0.4-0.1-0.8-0.2-1.3-0.2c-1.1,0-1.9,0.4-2.5,1.1
		c-0.6,0.7-0.9,1.7-0.9,2.9l-0.4-5.3c0.6-1.2,1.3-2.2,2.2-2.8c0.9-0.7,1.9-1,3-1c0.9,0,1.6,0.1,2.3,0.4c0.7,0.3,1.3,0.7,1.8,1.2
		l-3.1,4.4C271.1,91.2,270.8,91,270.4,90.9z"/>
	<path class="st6" d="M284.3,77.6h21v5.2h-21V77.6z M292.1,80h5.4v26.3h-5.4V80z"/>
	<path class="st6" d="M305.7,85.8h5.8v20.4h-5.8V85.8z M316.2,90.9c-0.4-0.1-0.8-0.2-1.3-0.2c-1.1,0-1.9,0.4-2.5,1.1
		c-0.6,0.7-0.9,1.7-0.9,2.9l-0.4-5.3c0.6-1.2,1.3-2.2,2.2-2.8c0.9-0.7,1.9-1,3-1c0.9,0,1.6,0.1,2.3,0.4c0.7,0.3,1.3,0.7,1.8,1.2
		l-3.1,4.4C316.9,91.2,316.6,91,316.2,90.9z"/>
	<path class="st6" d="M323.5,105c-1.1-1-1.6-2.6-1.6-4.8c0-2,0.6-3.5,1.8-4.5c1.2-1,3-1.5,5.5-1.5h5.1l0.3,4.1h-5.4
		c-0.8,0-1.4,0.2-1.8,0.5c-0.4,0.3-0.6,0.8-0.6,1.5c0,0.7,0.3,1.2,0.8,1.5s1.3,0.5,2.3,0.5c1.4,0,2.5-0.2,3.2-0.5
		c0.7-0.3,1.1-0.8,1.1-1.5l0.4,3c-0.1,0.7-0.4,1.4-1,1.9c-0.6,0.5-1.3,0.9-2.2,1.2s-1.8,0.4-2.8,0.4
		C326.3,106.5,324.6,106,323.5,105z M334.1,93.3c0-0.9-0.3-1.7-0.9-2.2c-0.6-0.5-1.5-0.8-2.7-0.8c-0.8,0-1.5,0.1-2.3,0.4
		c-0.7,0.3-1.4,0.6-2,1l-3.3-3.3c0.8-0.9,1.9-1.7,3.2-2.2c1.3-0.5,2.8-0.8,4.4-0.8c1.8,0,3.3,0.3,4.6,0.9c1.3,0.6,2.2,1.5,2.9,2.6
		c0.7,1.1,1,2.5,1,4.1v13.1h-4.9V93.3z"/>
	<path class="st6" d="M344.4,85.8h5.4v20.4h-5.4V85.8z M356.3,94.4c0-1.2-0.3-2.1-0.9-2.8c-0.6-0.6-1.4-1-2.5-1
		c-1,0-1.8,0.3-2.3,0.8c-0.5,0.6-0.8,1.3-0.8,2.4l-0.4-4.5c0.6-1.3,1.4-2.2,2.3-2.9s2-1,3.2-1c1.4,0,2.7,0.3,3.7,1s1.8,1.7,2.4,3.1
		s0.8,2.9,0.8,4.8v11.8h-5.4V94.4z M368.2,94.4c0-1.2-0.3-2.1-0.9-2.8s-1.4-1-2.4-1c-1,0-1.8,0.3-2.4,0.9s-0.8,1.5-0.8,2.6l-1-4.7
		c0.6-1.3,1.5-2.3,2.5-3c1-0.7,2.2-1.1,3.4-1.1c1.5,0,2.7,0.3,3.8,1s1.8,1.7,2.4,3.1c0.5,1.3,0.8,2.9,0.8,4.8v11.8h-5.4V94.4z"/>
	<path class="st6" d="M378.9,85.8h5.4v28.7h-5.4V85.8z M385.9,105.6c-0.9-0.6-1.5-1.5-1.9-2.6l0.3-4.7c0,0.7,0.1,1.2,0.4,1.7
		c0.2,0.5,0.6,0.8,1,1.1c0.5,0.2,1,0.4,1.6,0.4c1,0,1.8-0.3,2.4-1s0.8-1.6,0.8-2.8v-3.2c0-1.2-0.3-2.2-0.8-2.9s-1.3-1-2.4-1
		c-0.6,0-1.2,0.1-1.6,0.4c-0.5,0.3-0.8,0.6-1,1.1c-0.2,0.5-0.4,1.1-0.4,1.8l-0.4-4.5c0.6-1.2,1.3-2.1,2.2-2.8s1.9-1,3-1
		c1.4,0,2.7,0.3,3.7,1c1,0.7,1.8,1.7,2.4,3.1s0.8,2.9,0.8,4.8v3.3c0,1.9-0.3,3.5-0.8,4.8s-1.3,2.3-2.4,3c-1,0.7-2.3,1-3.7,1
		C387.8,106.5,386.8,106.2,385.9,105.6z"/>
	<path class="st6" d="M404.2,105.5c-1.3-0.7-2.3-1.7-3-3c-0.7-1.3-1-2.9-1-4.8v-3.3c0-1.8,0.3-3.4,1-4.8c0.7-1.3,1.7-2.3,3-3
		c1.3-0.7,2.9-1,4.8-1c1.9,0,3.5,0.3,4.8,1c1.3,0.7,2.3,1.7,3,3c0.7,1.3,1,2.9,1,4.8v3.4c0,1.9-0.3,3.5-1,4.8c-0.7,1.3-1.7,2.3-3,3
		c-1.3,0.7-2.9,1-4.8,1C407.2,106.5,405.6,106.2,404.2,105.5z M411.5,100.4c0.6-0.6,0.9-1.5,0.9-2.7v-3.4c0-1.1-0.3-2-0.9-2.7
		c-0.6-0.6-1.5-0.9-2.5-0.9c-1.1,0-1.9,0.3-2.5,0.9c-0.6,0.6-0.9,1.5-0.9,2.7v3.4c0,1.2,0.3,2.1,0.9,2.7s1.4,1,2.5,1
		S410.9,101,411.5,100.4z"/>
</g>
<g>
	<g>
		
			<ellipse transform="matrix(0.6117 -0.7911 0.7911 0.6117 150.986 61.4693)" class="st0" cx="138.1" cy="-123.1" rx="7.2" ry="11"/>
		<polygon class="st0" points="105.6,-188.9 111.9,-184 145.2,-124.1 141.6,-119.4 137.1,-126.6 138.9,-129 		"/>
	</g>
	<ellipse class="st1" cx="108.5" cy="-29" rx="53.5" ry="9"/>
	<ellipse class="st2" cx="84.5" cy="-93" rx="66.5" ry="64"/>
	<g>
		<path class="st3" d="M58.9-90.4c-1.3-21,38.6-20.9,55.2-30.5c1.9-1.1,8.6-4.2,10.7-4.7c6.1-1.3,21.2,16.5,19.1,30.6
			c-1.4,9.4-9.3,15.3-22,24c-18.5,12.7-32.8,15.8-48.9,14.8C60.4-57,59.7-78.6,58.9-90.4z"/>
		<path d="M86-82h8c-1,5.5-4.6,10-9,10s-8-4.5-8-10s3.6-10,8-10c3.8,0,7.1,3.4,7.8,8L86-82z"/>
		<path d="M124-100h8c0,5.5-3.6,10-8,10s-8-4.5-8-10s3.6-10,8-10c3.8,0,7.1,3.4,7.8,8L124-100z"/>
	</g>
	<path class="st0" d="M41-137c7.2,2.7,20.5,6,25,15c0.5,1,2.6,4.6,2.8,5c1.4,3.1,36.4-11.8,41.2-14.3c0.8-0.4,3.5-1.2,3.9-2.7
		c1.5-5.3-12.8-19.1-24.5-22.4C67.4-162.5,32.6-140.2,41-137z"/>
	<path class="st4" d="M29.1-126c2.5,1.7-2,14,0.4,26.9c0.1,0.3,0.3,1.6,1,3.8c2.7,8.9,7.5,25,19.2,36c13.4,12.5,33.8,16.4,49.9,13.3
		c21.5-4.2,39.6-21.6,42.4-18.9c2.1,2-5.3,10.4-13,18c-18,17.6-43.8,17.7-51,17c-8.2-0.8-19.9-3.6-31.6-12
		c-13.5-9.7-21.4-21.6-23.3-27c-3.1-8.9-4.8-17-4.1-33.9c0.3-6.2,0.9-12.7,5.8-17C26.7-121.7,27.7-127,29.1-126z"/>
	<g>
		<ellipse class="st3" cx="36" cy="-78.4" rx="14" ry="21.4"/>
		<ellipse class="st5" cx="35.2" cy="-78" rx="7.2" ry="11"/>
		<polygon class="st0" points="3,-144 3,-136 30,-73 36,-73 33,-81 30,-81 		"/>
	</g>
</g>
<g>
	<g>
		<path class="st0" d="M174.5-77.9c-1.3-0.3-2.5-0.7-3.7-1.2c-1.1-0.5-2.2-1.2-3.1-1.9l2.5-4.4c1.1,0.9,2.4,1.6,3.8,2.1
			c1.4,0.5,2.9,0.7,4.4,0.7c1.8,0,3.1-0.3,4.1-0.9c1-0.6,1.5-1.4,1.5-2.5v0c0-0.8-0.2-1.4-0.6-1.8c-0.4-0.4-1-0.8-1.7-1
			c-0.7-0.2-1.6-0.4-2.7-0.6c0,0-0.1,0-0.1,0c0,0-0.1,0-0.1,0l-0.4-0.1c-1.9-0.3-3.5-0.7-4.8-1.1c-1.3-0.5-2.3-1.2-3.2-2.4
			s-1.3-2.7-1.3-4.8v0c0-1.9,0.4-3.4,1.2-4.7c0.8-1.3,2-2.3,3.6-3c1.6-0.7,3.5-1,5.7-1c1,0,2.1,0.1,3.1,0.4s2.1,0.6,3.1,1
			c1,0.4,2,1,2.9,1.6l-2.3,4.6c-1.1-0.8-2.3-1.4-3.5-1.8c-1.2-0.4-2.4-0.6-3.5-0.6c-1.7,0-2.9,0.3-3.8,0.8c-0.9,0.5-1.4,1.3-1.4,2.3
			v0c0,0.8,0.2,1.5,0.7,2c0.5,0.5,1.1,0.8,1.8,1.1c0.7,0.2,1.7,0.5,2.9,0.7c0.1,0,0.1,0,0.2,0c0.1,0,0.1,0,0.2,0c0.1,0,0.2,0,0.2,0
			c0.1,0,0.1,0,0.2,0c1.8,0.4,3.3,0.8,4.5,1.3c1.2,0.5,2.2,1.3,3,2.4c0.8,1.1,1.2,2.7,1.2,4.6v0c0,1.8-0.4,3.4-1.3,4.7
			c-0.9,1.3-2.1,2.3-3.7,3c-1.6,0.7-3.6,1-5.9,1C177.1-77.5,175.8-77.6,174.5-77.9z"/>
		<path class="st0" d="M199.3-85.8c0,1,0.3,1.7,0.8,2.3s1.3,0.8,2.4,0.8c1,0,1.8-0.3,2.3-0.8c0.5-0.6,0.8-1.4,0.8-2.4l0.3,4.5
			c-0.4,1.1-1,2.1-1.9,2.8c-0.9,0.8-2,1.1-3.2,1.1c-2.2,0-3.9-0.7-5.1-2.1c-1.2-1.4-1.8-3.4-1.8-6v-12.6h5.4V-85.8z M205.6-98.2h5.4
			v20.4h-5.4V-98.2z"/>
		<path class="st0" d="M216.3-98.2h5.4v28.7h-5.4V-98.2z M223.4-78.4c-0.9-0.6-1.5-1.5-1.9-2.6l0.3-4.7c0,0.7,0.1,1.2,0.4,1.7
			c0.2,0.5,0.6,0.8,1,1.1c0.5,0.2,1,0.4,1.6,0.4c1,0,1.8-0.3,2.4-1s0.8-1.6,0.8-2.8v-3.2c0-1.2-0.3-2.2-0.8-2.9
			c-0.6-0.7-1.3-1-2.4-1c-0.6,0-1.2,0.1-1.6,0.4c-0.5,0.3-0.8,0.6-1,1.1c-0.2,0.5-0.4,1.1-0.4,1.8l-0.4-4.5c0.6-1.2,1.3-2.1,2.2-2.8
			s1.9-1,3-1c1.4,0,2.7,0.3,3.7,1c1,0.7,1.8,1.7,2.4,3.1c0.5,1.3,0.8,2.9,0.8,4.8v3.3c0,1.9-0.3,3.5-0.8,4.8s-1.3,2.3-2.4,3
			c-1,0.7-2.3,1-3.7,1C225.3-77.5,224.2-77.8,223.4-78.4z"/>
		<path class="st0" d="M242-78.5c-1.4-0.7-2.5-1.8-3.2-3.1s-1.1-3-1.1-4.9v-2.3c0-2,0.4-3.7,1.1-5.2c0.7-1.4,1.7-2.5,3.1-3.3
			c1.3-0.7,3-1.1,4.9-1.1c1.8,0,3.3,0.4,4.6,1.3c1.3,0.9,2.2,2.2,2.9,3.9c0.7,1.7,1,3.7,1,6.1v1.3h-14v-3.6h9.1l-0.1-0.5
			c-0.1-1.2-0.5-2.1-1.1-2.7c-0.6-0.6-1.4-1-2.4-1c-1.3,0-2.3,0.4-3,1.2c-0.7,0.8-1.1,1.9-1.1,3.3v2.6c0,1.4,0.4,2.5,1.2,3.2
			c0.8,0.8,1.9,1.1,3.3,1.1c0.7,0,1.4-0.1,2.1-0.4c0.7-0.3,1.4-0.6,1.9-1.1l3.5,3.1c-1.1,1-2.3,1.7-3.6,2.3c-1.3,0.5-2.7,0.8-4,0.8
			C245-77.5,243.3-77.8,242-78.5z"/>
		<path class="st0" d="M259.8-98.2h5.8v20.4h-5.8V-98.2z M270.4-93.1c-0.4-0.1-0.8-0.2-1.3-0.2c-1.1,0-1.9,0.4-2.5,1.1
			c-0.6,0.7-0.9,1.7-0.9,2.9l-0.4-5.3c0.6-1.2,1.3-2.2,2.2-2.8c0.9-0.7,1.9-1,3-1c0.9,0,1.6,0.1,2.3,0.4c0.7,0.3,1.3,0.7,1.8,1.2
			l-3.1,4.4C271.1-92.8,270.8-93,270.4-93.1z"/>
		<path class="st7" d="M284.3-106.4h21v5.2h-21V-106.4z M292.1-104h5.4v26.3h-5.4V-104z"/>
		<path class="st7" d="M307.3-98.2h5.8v20.4h-5.8V-98.2z M317.8-93.1c-0.4-0.1-0.8-0.2-1.3-0.2c-1.1,0-1.9,0.4-2.5,1.1
			c-0.6,0.7-0.9,1.7-0.9,2.9l-0.4-5.3c0.6-1.2,1.3-2.2,2.2-2.8c0.9-0.7,1.9-1,3-1c0.9,0,1.6,0.1,2.3,0.4c0.7,0.3,1.3,0.7,1.8,1.2
			l-3.1,4.4C318.5-92.8,318.2-93,317.8-93.1z"/>
		<path class="st7" d="M325.1-79c-1.1-1-1.6-2.6-1.6-4.8c0-2,0.6-3.5,1.8-4.5c1.2-1,3-1.5,5.5-1.5h5.1l0.3,4.1h-5.4
			c-0.8,0-1.4,0.2-1.8,0.5c-0.4,0.3-0.6,0.8-0.6,1.5c0,0.7,0.3,1.2,0.8,1.5s1.3,0.5,2.3,0.5c1.4,0,2.5-0.2,3.2-0.5
			c0.7-0.3,1.1-0.8,1.1-1.5l0.4,3c-0.1,0.7-0.4,1.4-1,1.9c-0.6,0.5-1.3,0.9-2.2,1.2s-1.8,0.4-2.8,0.4C327.8-77.5,326.2-78,325.1-79z
			 M335.7-90.7c0-0.9-0.3-1.7-0.9-2.2c-0.6-0.5-1.5-0.8-2.7-0.8c-0.8,0-1.5,0.1-2.3,0.4c-0.7,0.2-1.4,0.6-2,1l-3.3-3.3
			c0.8-0.9,1.9-1.7,3.2-2.2c1.3-0.5,2.8-0.8,4.4-0.8c1.8,0,3.3,0.3,4.6,0.9c1.3,0.6,2.2,1.5,2.9,2.6c0.7,1.1,1,2.5,1,4.1v13.1h-4.9
			V-90.7z"/>
		<path class="st7" d="M345.9-98.2h5.4v20.4h-5.4V-98.2z M357.8-89.6c0-1.2-0.3-2.1-0.9-2.8c-0.6-0.6-1.4-1-2.5-1
			c-1,0-1.8,0.3-2.3,0.8c-0.5,0.6-0.8,1.3-0.8,2.4l-0.4-4.5c0.6-1.3,1.4-2.2,2.3-2.9c0.9-0.7,2-1,3.2-1c1.4,0,2.7,0.3,3.7,1
			s1.8,1.7,2.4,3.1c0.5,1.3,0.8,2.9,0.8,4.8v11.8h-5.4V-89.6z M369.7-89.6c0-1.2-0.3-2.1-0.9-2.8s-1.4-1-2.4-1c-1,0-1.8,0.3-2.4,0.9
			c-0.6,0.6-0.8,1.5-0.8,2.6l-1-4.7c0.6-1.3,1.5-2.3,2.5-3c1-0.7,2.2-1.1,3.4-1.1c1.5,0,2.7,0.3,3.8,1s1.8,1.7,2.4,3.1
			c0.5,1.3,0.8,2.9,0.8,4.8v11.8h-5.4V-89.6z"/>
		<path class="st7" d="M380.4-98.2h5.4v28.7h-5.4V-98.2z M387.5-78.4c-0.9-0.6-1.5-1.5-1.9-2.6l0.3-4.7c0,0.7,0.1,1.2,0.4,1.7
			c0.2,0.5,0.6,0.8,1,1.1c0.5,0.2,1,0.4,1.6,0.4c1,0,1.8-0.3,2.4-1s0.8-1.6,0.8-2.8v-3.2c0-1.2-0.3-2.2-0.8-2.9
			c-0.6-0.7-1.3-1-2.4-1c-0.6,0-1.2,0.1-1.6,0.4c-0.5,0.3-0.8,0.6-1,1.1c-0.2,0.5-0.4,1.1-0.4,1.8l-0.4-4.5c0.6-1.2,1.3-2.1,2.2-2.8
			s1.9-1,3-1c1.4,0,2.7,0.3,3.7,1c1,0.7,1.8,1.7,2.4,3.1c0.5,1.3,0.8,2.9,0.8,4.8v3.3c0,1.9-0.3,3.5-0.8,4.8s-1.3,2.3-2.4,3
			c-1,0.7-2.3,1-3.7,1C389.4-77.5,388.4-77.8,387.5-78.4z"/>
		<path class="st7" d="M405.8-78.5c-1.3-0.7-2.3-1.7-3-3c-0.7-1.3-1-2.9-1-4.8v-3.3c0-1.8,0.3-3.4,1-4.8c0.7-1.3,1.7-2.3,3-3
			c1.3-0.7,2.9-1,4.8-1c1.9,0,3.5,0.3,4.8,1c1.3,0.7,2.3,1.7,3,3c0.7,1.3,1,2.9,1,4.8v3.4c0,1.9-0.3,3.5-1,4.8c-0.7,1.3-1.7,2.3-3,3
			c-1.3,0.7-2.9,1-4.8,1C408.7-77.5,407.1-77.8,405.8-78.5z M413.1-83.6c0.6-0.6,0.9-1.5,0.9-2.7v-3.4c0-1.1-0.3-2-0.9-2.7
			c-0.6-0.6-1.5-0.9-2.5-0.9c-1.1,0-1.9,0.3-2.5,0.9c-0.6,0.6-0.9,1.5-0.9,2.7v3.4c0,1.2,0.3,2.1,0.9,2.7s1.4,1,2.5,1
			S412.5-83,413.1-83.6z"/>
	</g>
</g>
<image style="overflow:visible;" width="324" height="100" xlink:href="2AA38AC9.jpg"  transform="matrix(1 0 0 1 -477 7)">
</image>
</svg>
